<svg version="1.1" xmlns="http://www.w3.org/2000/svg" viewBox="0 0 1296.5079365079362 2212.1962481962473" width="1296.5079365079362" height="2212.1962481962473">
  <!-- svg-source:excalidraw -->
  
  <defs>
    <style>
      @font-face {
        font-family: "Virgil";
        src: url("https://excalidraw.com/Virgil.woff2");
      }
      @font-face {
        font-family: "Cascadia";
        src: url("https://excalidraw.com/Cascadia.woff2");
      }
    </style>
  </defs>
  <rect x="0" y="0" width="1296.5079365079362" height="2212.1962481962473" fill="#ffffff"></rect><g stroke-linecap="round" transform="translate(621.8452380952331 10) rotate(0 305.18504901960796 158.4166666666667)"><path d="M-0.48 0.69 C133.79 -2.81, 269.28 -2.47, 610.27 -0.67 M-0.17 -0.34 C188.51 0.92, 377.59 0.55, 610.56 0.2 M610.35 -0.68 C611.57 69.32, 609.84 140.44, 611.24 315.53 M610.47 -0.35 C610.72 87.1, 610.32 174.95, 610.84 316.13 M609.73 316.72 C479.43 318.23, 349.12 318.5, 0.03 316.34 M610.15 316.7 C401.55 314.41, 193.02 314.24, -0.13 317 M-0.33 315.54 C2.9 203.4, 0.57 93.21, -0.95 0.95 M0.24 317.32 C-0.44 224.9, -1 132.62, -0.24 -0.62" stroke="#000000" stroke-width="1" fill="none"></path></g><g stroke-linecap="round"><g transform="translate(922.5766065752448 328.05414551607447) rotate(0 -0.3068936944489451 67.18064300059598)"><path d="M0.03 1.2 C-0.12 23.55, -1.4 111.44, -1.45 133.58 M-1.41 0.78 C-1.14 22.84, 0.74 109.88, 0.84 131.79" stroke="#000000" stroke-width="1" fill="none"></path></g><g transform="translate(922.5766065752448 328.05414551607447) rotate(0 -0.3068936944489451 67.18064300059598)"><path d="M-7.82 102.4 C-6.19 111.55, -2.73 119.71, -0.7 130.8 M-9.67 104.48 C-7.3 112.5, -2.47 120.47, 1.83 132.14" stroke="#000000" stroke-width="1" fill="none"></path></g><g transform="translate(922.5766065752448 328.05414551607447) rotate(0 -0.3068936944489451 67.18064300059598)"><path d="M12.7 102.11 C9.1 111.34, 7.32 119.57, -0.7 130.8 M10.85 104.19 C6.93 112.38, 5.48 120.44, 1.83 132.14" stroke="#000000" stroke-width="1" fill="none"></path></g></g><g transform="translate(658.8531746031706 39.52527118475405) rotate(0 254.5 52)"><text x="0" y="73" font-family="Virgil, Segoe UI Emoji" font-size="81.8793103448276px" fill="#000000" text-anchor="start" style="white-space: pre;" direction="ltr">Initialization</text></g><g stroke-linecap="round" transform="translate(766.7301587301542 462.89069264069275) rotate(0 156.25 138.74999999999977)"><path d="M158.06 -0.33 C208.81 46.02, 262.29 95.52, 311.94 138.33 M156.28 0.01 C192.97 30.57, 226.55 63.06, 311.87 138.19 M313.54 137.45 C273.33 171.6, 235.56 205.9, 155.42 277.06 M312.53 138.91 C256.36 187.97, 201.65 237.74, 156.12 277.86 M156.63 276.78 C116.62 241.7, 78.11 207.34, -0.67 137.28 M156.77 277.62 C96.01 224.48, 34.72 169.55, -0.42 138.94 M0.49 137.7 C31.35 112.25, 62.69 83.87, 157.01 0.44 M-0.88 138.95 C40.54 101.38, 83.26 65.03, 157.37 -0.88" stroke="#000000" stroke-width="1" fill="none"></path></g><g transform="translate(825.4801587301542 553.7121212121212) rotate(0 115.5 46.5)"><text x="0" y="22" font-family="Virgil, Segoe UI Emoji" font-size="25.00000000000002px" fill="#000000" text-anchor="start" style="white-space: pre;" direction="ltr">Is  </text><text x="0" y="53" font-family="Virgil, Segoe UI Emoji" font-size="25.00000000000002px" fill="#000000" text-anchor="start" style="white-space: pre;" direction="ltr">InfinimumDB-Server</text><text x="0" y="84" font-family="Virgil, Segoe UI Emoji" font-size="25.00000000000002px" fill="#000000" text-anchor="start" style="white-space: pre;" direction="ltr">reachable? </text></g><g transform="translate(667.8412698412651 191.41053391053418) rotate(0 266 52.5)"><text x="0" y="25.000000000000007" font-family="Virgil, Segoe UI Emoji" font-size="28px" fill="#000000" text-anchor="start" style="white-space: pre;" direction="ltr">Given: </text><text x="0" y="60.000000000000014" font-family="Virgil, Segoe UI Emoji" font-size="28px" fill="#000000" text-anchor="start" style="white-space: pre;" direction="ltr">-host and port for InfinimumDB-Server</text><text x="0" y="95.00000000000003" font-family="Virgil, Segoe UI Emoji" font-size="28px" fill="#000000" text-anchor="start" style="white-space: pre;" direction="ltr">-host and port for Redis</text></g><g transform="translate(266.86904761904407 542.0851370851374) rotate(0 139.16666666666663 46.388888888888914)"><text x="0" y="21.925925925925924" font-family="Virgil, Segoe UI Emoji" font-size="24.740740740740744px" fill="#000000" text-anchor="start" style="white-space: pre;" direction="ltr">Error:</text><text x="0" y="52.85185185185185" font-family="Virgil, Segoe UI Emoji" font-size="24.740740740740744px" fill="#000000" text-anchor="start" style="white-space: pre;" direction="ltr">"InfinimumDB-Server </text><text x="0" y="83.77777777777777" font-family="Virgil, Segoe UI Emoji" font-size="24.740740740740744px" fill="#000000" text-anchor="start" style="white-space: pre;" direction="ltr">could not be reached" </text></g><g stroke-linecap="round" transform="translate(247.1468253968219 496.64069264069286) rotate(0 148.75 96.25)"><path d="M207.31 8.89 C223.05 11.67, 239.74 19.28, 252.23 26.84 C264.72 34.4, 274.99 44.55, 282.25 54.24 C289.52 63.94, 293.96 74.29, 295.83 85.02 C297.7 95.74, 297.46 107.86, 293.47 118.61 C289.48 129.36, 281.14 140.49, 271.89 149.54 C262.63 158.59, 251.54 166.51, 237.92 172.92 C224.29 179.32, 206.41 184.88, 190.13 187.98 C173.85 191.08, 157.2 191.99, 140.25 191.5 C123.31 191.01, 104.08 189.27, 88.45 185.04 C72.82 180.82, 58.73 173.78, 46.48 166.12 C34.24 158.47, 22.61 149.13, 14.96 139.12 C7.31 129.11, 2.47 117.03, 0.6 106.07 C-1.26 95.11, -0.15 83.99, 3.78 73.36 C7.71 62.74, 14.67 51.59, 24.18 42.33 C33.7 33.06, 47.16 24.06, 60.87 17.79 C74.58 11.52, 90.34 7.53, 106.46 4.72 C122.58 1.91, 139.59 0.04, 157.6 0.92 C175.6 1.79, 204.06 7.89, 214.48 9.97 C224.91 12.04, 221.06 12.03, 220.15 13.36 M196.14 3.74 C211.89 5.64, 226.62 14.2, 240.02 21.02 C253.42 27.83, 267.29 35.38, 276.54 44.61 C285.8 53.84, 292.14 65.57, 295.57 76.38 C298.99 87.19, 300 98.75, 297.09 109.47 C294.18 120.19, 286.58 130.96, 278.11 140.71 C269.63 150.46, 258.74 160.66, 246.25 167.96 C233.75 175.26, 218.92 180.61, 203.11 184.51 C187.3 188.41, 168.27 190.72, 151.41 191.36 C134.54 192, 117.76 191.71, 101.9 188.36 C86.05 185, 69.43 178.23, 56.28 171.24 C43.13 164.26, 31.84 155.69, 22.99 146.45 C14.14 137.22, 6.88 126.54, 3.18 115.81 C-0.52 105.08, -1.65 92.81, 0.8 82.06 C3.25 71.31, 9.66 61.08, 17.89 51.32 C26.13 41.57, 37.36 30.94, 50.21 23.52 C63.06 16.1, 79.35 10.87, 94.99 6.81 C110.64 2.74, 127.4 -0.71, 144.08 -0.88 C160.77 -1.04, 186.55 4.44, 195.12 5.81 C203.69 7.19, 195.99 6.17, 195.51 7.38" stroke="#000000" stroke-width="1" fill="none"></path></g><g stroke-linecap="round" transform="translate(768.5555555555518 1287.6129148629152) rotate(0 156.25 138.74999999999977)"><path d="M158.06 -0.94 C203 39.3, 244.3 79.41, 311.4 139.54 M156.16 -0.55 C211.2 47.91, 265.44 94.96, 313.28 139.29 M312.26 138.99 C254.06 190.8, 195.06 243.53, 158.4 277.57 M311.71 138.33 C270.47 176.55, 229.9 214.65, 156.54 277.25 M155.77 278.92 C109.88 235.03, 64.27 194.76, 1.25 137.46 M157.2 277.19 C111.39 237.95, 67.97 199.96, -0.05 139.52 M-0.44 138.08 C62.53 85.77, 125.9 28.32, 157.85 -1.61 M-0.06 139.16 C58.45 87.08, 116.45 34.44, 156.93 0.4" stroke="#000000" stroke-width="1" fill="none"></path></g><g transform="translate(788.8888888888848 1409.7795815295826) rotate(0 135.1182795698919 17.16666666666663)"><text x="0" y="24.333333333333172" font-family="Virgil, Segoe UI Emoji" font-size="27.68817204301065px" fill="#000000" text-anchor="start" style="white-space: pre;" direction="ltr">Is Redis reachable?</text></g><g stroke-linecap="round" transform="translate(737.2222222222194 876.640692640693) rotate(0 188.33333333333337 127.5)"><path d="M174.04 0.49 C191.22 -2.37, 211.46 -0.09, 229.44 2.66 C247.42 5.4, 265.81 10.56, 281.94 16.96 C298.06 23.36, 313.73 31.91, 326.19 41.07 C338.65 50.23, 348.53 60.79, 356.7 71.91 C364.88 83.03, 372.33 95.34, 375.22 107.78 C378.11 120.22, 376.71 134.2, 374.04 146.54 C371.36 158.88, 366.94 170.7, 359.19 181.84 C351.44 192.97, 340.13 204.15, 327.54 213.34 C314.96 222.52, 299.82 230.67, 283.7 236.96 C267.58 243.25, 248.88 248.13, 230.82 251.06 C212.76 253.99, 193.87 255.23, 175.34 254.54 C156.81 253.85, 137.09 251.29, 119.64 246.92 C102.19 242.54, 85.18 236.25, 70.64 228.29 C56.11 220.33, 42.71 209.5, 32.44 199.17 C22.16 188.84, 14.24 178.11, 8.98 166.32 C3.71 154.53, 0.99 141.19, 0.84 128.44 C0.7 115.7, 2.69 101.9, 8.09 89.85 C13.49 77.8, 22.85 66.48, 33.25 56.12 C43.64 45.77, 56.22 35.47, 70.47 27.73 C84.72 19.99, 99.81 14.16, 118.75 9.7 C137.68 5.24, 171.46 2, 184.08 0.99 C196.7 -0.03, 194.33 1.59, 194.47 3.61 M110.16 10.39 C125.24 4.05, 147.5 3.4, 165.83 2.13 C184.15 0.86, 202.24 0.83, 220.1 2.76 C237.96 4.7, 256.39 8.1, 272.96 13.74 C289.53 19.38, 306.12 27.94, 319.5 36.59 C332.87 45.24, 344.42 54.77, 353.23 65.62 C362.05 76.47, 368.41 89.45, 372.38 101.67 C376.35 113.89, 378.57 126.58, 377.04 138.96 C375.52 151.35, 370.77 164.41, 363.23 175.97 C355.7 187.53, 343.81 198.7, 331.83 208.3 C319.85 217.91, 306.72 226.6, 291.36 233.62 C276.01 240.63, 257.49 247.04, 239.69 250.42 C221.9 253.81, 203.16 254.05, 184.58 253.92 C166 253.8, 145.87 253.46, 128.21 249.7 C110.54 245.94, 93.78 239.13, 78.6 231.35 C63.43 223.58, 48.57 212.94, 37.15 203.04 C25.74 193.14, 16.44 183.35, 10.1 171.95 C3.75 160.55, -0.38 147.23, -0.89 134.65 C-1.41 122.08, 2.09 108.79, 7 96.47 C11.91 84.15, 19.32 71.3, 28.55 60.74 C37.79 50.19, 48.65 41.43, 62.44 33.14 C76.23 24.85, 103.14 14.47, 111.32 10.98 C119.5 7.49, 110.51 10.24, 111.53 12.19" stroke="#000000" stroke-width="1" fill="none"></path></g><g transform="translate(760.5555555555529 966.5295815295824) rotate(0 174.76666666666677 40.83333333333337)"><text x="0" y="19.222222222222246" font-family="Virgil, Segoe UI Emoji" font-size="21.777777777777796px" fill="#000000" text-anchor="start" style="white-space: pre;" direction="ltr">Get and save the address and </text><text x="0" y="46.44444444444449" font-family="Virgil, Segoe UI Emoji" font-size="21.777777777777796px" fill="#000000" text-anchor="start" style="white-space: pre;" direction="ltr">ports for all other </text><text x="0" y="73.66666666666674" font-family="Virgil, Segoe UI Emoji" font-size="21.777777777777796px" fill="#000000" text-anchor="start" style="white-space: pre;" direction="ltr">InfinimumDB-Servers</text></g><g transform="translate(658.6507936507926 538.3549783549788) rotate(0 19.22222222222217 40.04629629629619)"><text x="0" y="28.046296296296198" font-family="Virgil, Segoe UI Emoji" font-size="32.037037037036974px" fill="#000000" text-anchor="start" style="white-space: pre;" direction="ltr">No</text><text x="0" y="68.0925925925924" font-family="Virgil, Segoe UI Emoji" font-size="32.037037037036974px" fill="#000000" text-anchor="start" style="white-space: pre;" direction="ltr"></text></g><g stroke-linecap="round"><g transform="translate(922.2222222222213 730.5295815295822) rotate(0 -0.397082134676225 74.44827704679687)"><path d="M0.96 -0.98 C1.01 23.67, -0.29 123.67, -0.53 148.91 M0.01 1.12 C-0.08 25.8, -1.51 125.33, -1.76 149.88" stroke="#000000" stroke-width="1" fill="none"></path></g><g transform="translate(922.2222222222213 730.5295815295822) rotate(0 -0.397082134676225 74.44827704679687)"><path d="M-13.3 120.67 C-10.95 127.27, -6.04 136.57, -3.32 149.09 M-11.79 122.14 C-9.27 126.85, -7.3 133.07, -1.29 149.98" stroke="#000000" stroke-width="1" fill="none"></path></g><g transform="translate(922.2222222222213 730.5295815295822) rotate(0 -0.397082134676225 74.44827704679687)"><path d="M7.22 120.93 C4.8 127.63, 4.94 136.87, -3.32 149.09 M8.73 122.39 C7.09 127, 4.89 133.16, -1.29 149.98" stroke="#000000" stroke-width="1" fill="none"></path></g></g><g transform="translate(946.6666666666658 783.7518037518043) rotate(0 26.033333333333417 19.722222222222285)"><text x="0" y="27.44444444444455" font-family="Virgil, Segoe UI Emoji" font-size="31.555555555555603px" fill="#000000" text-anchor="start" style="white-space: pre;" direction="ltr">Yes</text></g><g stroke-linecap="round"><g transform="translate(923.8888888888885 1123.8629148629154) rotate(0 -0.522025100240171 82.55409003719694)"><path d="M0.17 -1.05 C0.24 26.74, -0.05 138.37, -0.13 166.16 M-1.21 1.01 C-1.26 28.55, -1.15 137.53, -1.15 164.65" stroke="#000000" stroke-width="1" fill="none"></path></g><g transform="translate(923.8888888888885 1123.8629148629154) rotate(0 -0.522025100240171 82.55409003719694)"><path d="M-13.18 136.24 C-7.02 143.1, -5.16 150.13, 0.3 164.18 M-11.93 136.51 C-10.06 142, -7.37 149.22, -1.98 164.11" stroke="#000000" stroke-width="1" fill="none"></path></g><g transform="translate(923.8888888888885 1123.8629148629154) rotate(0 -0.522025100240171 82.55409003719694)"><path d="M7.34 136.23 C8.29 143.12, 4.93 150.15, 0.3 164.18 M8.59 136.5 C5.9 141.79, 4.02 149.02, -1.98 164.11" stroke="#000000" stroke-width="1" fill="none"></path></g></g><g transform="translate(313.82936507936483 1367.422438672439) rotate(0 114.61904761904748 51.78571428571422)"><text x="0" y="24.523809523809483" font-family="Virgil, Segoe UI Emoji" font-size="27.6190476190476px" fill="#000000" text-anchor="start" style="white-space: pre;" direction="ltr">Error:</text><text x="0" y="59.047619047618966" font-family="Virgil, Segoe UI Emoji" font-size="27.6190476190476px" fill="#000000" text-anchor="start" style="white-space: pre;" direction="ltr">"Redis could</text><text x="0" y="93.57142857142844" font-family="Virgil, Segoe UI Emoji" font-size="27.6190476190476px" fill="#000000" text-anchor="start" style="white-space: pre;" direction="ltr"> not be reached"</text></g><g stroke-linecap="round" transform="translate(266.3293650793653 1329.279581529582) rotate(0 148.75 96.25)"><path d="M88.68 8.72 C102.44 3.39, 121.76 1.6, 138.72 0.9 C155.68 0.2, 174.26 1.53, 190.44 4.52 C206.63 7.5, 222.06 12.33, 235.81 18.81 C249.57 25.3, 263.46 34.28, 272.96 43.41 C282.45 52.54, 288.7 63.21, 292.78 73.58 C296.85 83.95, 299.13 94.83, 297.42 105.65 C295.7 116.47, 290.22 128.58, 282.5 138.5 C274.78 148.42, 263.27 157.54, 251.1 165.17 C238.94 172.8, 224.92 179.88, 209.52 184.3 C194.12 188.71, 175.69 190.79, 158.71 191.65 C141.73 192.5, 124.01 192.46, 107.65 189.42 C91.29 186.38, 74.15 179.97, 60.53 173.41 C46.9 166.85, 35.33 159.09, 25.92 150.06 C16.51 141.04, 8.34 130.1, 4.08 119.28 C-0.19 108.46, -1.44 95.94, 0.33 85.15 C2.11 74.37, 7.13 64.13, 14.72 54.57 C22.32 45.02, 32.75 35.59, 45.9 27.81 C59.04 20.04, 84.77 11.4, 93.62 7.92 C102.46 4.43, 98.12 5.7, 98.95 6.9 M155.56 0.9 C171.78 0.08, 190.8 4.15, 206.52 8.16 C222.24 12.17, 237.34 17.55, 249.88 24.96 C262.42 32.36, 274.17 42.5, 281.74 52.6 C289.31 62.7, 293.1 74.7, 295.29 85.57 C297.48 96.43, 298.46 107.2, 294.88 117.77 C291.31 128.34, 282.99 139.75, 273.85 148.98 C264.71 158.21, 253.49 166.68, 240.04 173.16 C226.59 179.64, 209.7 184.81, 193.15 187.86 C176.61 190.91, 157.91 191.72, 140.77 191.47 C123.64 191.22, 105.98 190.46, 90.35 186.34 C74.72 182.23, 59.16 174.53, 47.01 166.77 C34.86 159, 24.96 149.26, 17.43 139.75 C9.89 130.24, 4.04 120.5, 1.8 109.68 C-0.45 98.87, 0.29 85.66, 3.95 74.86 C7.61 64.05, 14.62 54.17, 23.74 44.88 C32.87 35.59, 45.01 25.91, 58.7 19.12 C72.38 12.34, 89.82 7.13, 105.85 4.18 C121.89 1.22, 146.73 1.91, 154.91 1.39 C163.09 0.86, 154.62 -0.19, 154.94 1.05" stroke="#000000" stroke-width="1" fill="none"></path></g><g stroke-linecap="round"><g transform="translate(766.6155211016815 1424.4072868080118) rotate(0 -101.1890240708525 -0.41319668634298523)"><path d="M-1.04 0.66 C-34.69 0.59, -169.4 -1.33, -202.99 -1.49 M0.61 -0.03 C-32.59 0.09, -167.46 -0.75, -200.9 -0.57" stroke="#000000" stroke-width="1" fill="none"></path></g><g transform="translate(766.6155211016815 1424.4072868080118) rotate(0 -101.1890240708525 -0.41319668634298523)"><path d="M-171.59 -12.78 C-180.64 -10.16, -184.52 -5.16, -200.07 -1.04 M-173.55 -10.05 C-180.2 -9.24, -185.99 -5.46, -201.63 -0.75" stroke="#000000" stroke-width="1" fill="none"></path></g><g transform="translate(766.6155211016815 1424.4072868080118) rotate(0 -101.1890240708525 -0.41319668634298523)"><path d="M-171.62 7.74 C-180.48 6.07, -184.36 6.78, -200.07 -1.04 M-173.57 10.47 C-180.32 6.29, -186.12 5.07, -201.63 -0.75" stroke="#000000" stroke-width="1" fill="none"></path></g></g><g transform="translate(652.2222222222224 1366.7676767676774) rotate(0 21.78571428571422 21.78571428571422)"><text x="0" y="30.57142857142844" font-family="Virgil, Segoe UI Emoji" font-size="34.85714285714275px" fill="#000000" text-anchor="start" style="white-space: pre;" direction="ltr">No</text></g><g stroke-linecap="round"><g transform="translate(923.8888888888862 1562.1962481962487) rotate(0 0.0899683791166126 81.6445240321259)"><path d="M1.12 -0.53 C1.2 26.8, 0.08 136.5, 0.01 163.82 M0.25 1.81 C0.22 28.79, -0.95 134.8, -0.94 161.95" stroke="#000000" stroke-width="1" fill="none"></path></g><g transform="translate(923.8888888888862 1562.1962481962487) rotate(0 0.0899683791166126 81.6445240321259)"><path d="M-11.91 133.71 C-7.67 142.03, -5.82 149.34, -0.64 160.41 M-11.64 133.87 C-6.67 143.86, -5.01 153.71, -1.89 161.08" stroke="#000000" stroke-width="1" fill="none"></path></g><g transform="translate(923.8888888888862 1562.1962481962487) rotate(0 0.0899683791166126 81.6445240321259)"><path d="M8.61 133.83 C7.58 142.31, 4.15 149.59, -0.64 160.41 M8.88 133.99 C6.73 144.07, 1.28 153.88, -1.89 161.08" stroke="#000000" stroke-width="1" fill="none"></path></g></g><g transform="translate(948.8888888888862 1618.1962481962487) rotate(0 27.81428571428569 21.071428571428555)"><text x="0" y="29.142857142857167" font-family="Virgil, Segoe UI Emoji" font-size="33.71428571428572px" fill="#000000" text-anchor="start" style="white-space: pre;" direction="ltr">Yes</text></g><g stroke-linecap="round" transform="translate(788.8888888888862 1727.1962481962485) rotate(0 135 96.66666666666686)"><path d="M143.86 -0.61 C158.58 -1.49, 176.39 3.41, 190.56 8.07 C204.72 12.72, 217.8 19.63, 228.87 27.31 C239.94 34.98, 250.35 44.09, 256.98 54.13 C263.61 64.17, 267.03 76.43, 268.64 87.56 C270.24 98.7, 270.4 110.48, 266.64 120.95 C262.88 131.42, 254.96 141.35, 246.08 150.37 C237.21 159.39, 225.89 168.49, 213.38 175.06 C200.87 181.63, 185.55 186.78, 171.02 189.81 C156.49 192.83, 141.49 194.2, 126.18 193.22 C110.88 192.23, 93.24 188.36, 79.18 183.88 C65.12 179.4, 52.71 173.83, 41.81 166.35 C30.92 158.87, 20.57 149.11, 13.83 138.98 C7.08 128.84, 3.05 116.57, 1.35 105.54 C-0.35 94.52, -0.13 83.41, 3.6 72.84 C7.34 62.26, 15.02 51.15, 23.75 42.09 C32.49 33.02, 43.47 24.72, 56.02 18.45 C68.56 12.18, 81.08 7.28, 99.03 4.46 C116.99 1.64, 150.07 1.03, 163.74 1.52 C177.41 2.02, 181.77 5.76, 181.06 7.41 M154.55 2.28 C169.7 2.46, 187.08 6.5, 200.56 11.3 C214.05 16.1, 225.68 22.95, 235.43 31.09 C245.19 39.22, 253.43 49.64, 259.09 60.1 C264.74 70.55, 268.83 82.7, 269.36 93.83 C269.89 104.95, 266.99 116.17, 262.27 126.84 C257.55 137.51, 250.27 149.02, 241.05 157.83 C231.83 166.64, 220.15 174.24, 206.94 179.69 C193.74 185.15, 176.89 188.39, 161.81 190.56 C146.74 192.73, 131.46 194.08, 116.52 192.71 C101.58 191.34, 85.86 187.76, 72.17 182.34 C58.49 176.92, 44.84 168.42, 34.41 160.18 C23.98 151.95, 15.13 143.04, 9.6 132.94 C4.07 122.83, 1.76 110.48, 1.25 99.56 C0.74 88.64, 2.07 78.11, 6.54 67.43 C11.02 56.76, 18.36 44.51, 28.1 35.51 C37.84 26.5, 51.85 19.05, 65 13.38 C78.15 7.71, 91.84 3.49, 107.01 1.48 C122.17 -0.53, 148.06 1.2, 155.99 1.33 C163.91 1.46, 155.24 0.72, 154.56 2.26" stroke="#000000" stroke-width="1" fill="none"></path></g><g transform="translate(819.1269841269811 1790.1010101010106) rotate(0 104.22857142857197 34.28571428571445)"><text x="0" y="24.285714285714448" font-family="Virgil, Segoe UI Emoji" font-size="27.428571428571562px" fill="#000000" text-anchor="start" style="white-space: pre;" direction="ltr">Finish initializing</text><text x="0" y="58.571428571428896" font-family="Virgil, Segoe UI Emoji" font-size="27.428571428571562px" fill="#000000" text-anchor="start" style="white-space: pre;" direction="ltr">Redis Client</text></g><g stroke-linecap="round" transform="translate(33.33333333333326 565.9264069264057) rotate(0 21.66666666666663 22.5)"><path d="M18.19 0.86 C22.39 -0.3, 28.09 0.8, 31.95 2.96 C35.81 5.13, 39.64 9.52, 41.34 13.87 C43.04 18.22, 43.69 24.55, 42.13 29.05 C40.58 33.56, 36.08 38.41, 32.03 40.89 C27.98 43.37, 22.09 44.49, 17.82 43.92 C13.56 43.34, 9.28 41.07, 6.46 37.44 C3.64 33.81, 1.25 26.98, 0.9 22.14 C0.54 17.3, 0.88 11.97, 4.33 8.4 C7.78 4.82, 18.32 2.02, 21.59 0.69 C24.85 -0.64, 23.95 0.18, 23.93 0.42 M21.58 0.36 C26.23 0.02, 32.69 1.19, 36.22 4.25 C39.75 7.3, 41.79 14.03, 42.75 18.72 C43.7 23.4, 44.07 28.41, 41.96 32.35 C39.86 36.29, 34.89 40.33, 30.13 42.33 C25.37 44.33, 18.03 45.83, 13.4 44.37 C8.76 42.91, 4.64 37.95, 2.31 33.57 C-0.01 29.19, -1.13 22.57, -0.55 18.08 C0.04 13.58, 2.38 9.5, 5.81 6.62 C9.23 3.73, 17.69 1.67, 20.01 0.78 C22.33 -0.12, 19.39 0.97, 19.74 1.24" stroke="none" stroke-width="0" fill="#000000"></path><path d="M28.62 0.69 C32.86 1.73, 37.31 5.43, 39.86 9.44 C42.4 13.46, 44.53 20.05, 43.89 24.8 C43.25 29.54, 39.33 34.56, 36.01 37.94 C32.69 41.31, 28.37 44.66, 23.99 45.05 C19.61 45.43, 13.5 43.27, 9.72 40.24 C5.95 37.21, 2.44 31.5, 1.32 26.87 C0.21 22.25, 1.17 16.64, 3.05 12.51 C4.93 8.38, 7.8 3.87, 12.59 2.07 C17.37 0.28, 28.26 1.36, 31.76 1.75 C35.26 2.14, 33.93 4.1, 33.6 4.43 M15.72 0.72 C20.16 -0.56, 28.44 0.22, 32.75 2.63 C37.07 5.03, 40.06 10.96, 41.63 15.15 C43.21 19.35, 43.79 23.46, 42.21 27.79 C40.63 32.11, 36.02 38.28, 32.15 41.1 C28.29 43.92, 23.35 45.46, 19.01 44.7 C14.67 43.94, 9.05 40.29, 6.12 36.54 C3.19 32.79, 1.53 26.79, 1.4 22.19 C1.27 17.58, 2.96 12.42, 5.33 8.92 C7.7 5.42, 13.76 2.6, 15.62 1.19 C17.48 -0.22, 16.08 0.4, 16.49 0.47" stroke="#000000" stroke-width="1" fill="none"></path></g><g stroke-linecap="round" transform="translate(10 539.2597402597389) rotate(0 45 49.99999999999994)"><path d="M34.35 1.33 C41.29 -1.11, 51.89 -0.26, 59.18 2.35 C66.47 4.96, 73.14 11.05, 78.08 17.01 C83.02 22.97, 87.31 30.16, 88.82 38.11 C90.33 46.05, 89.36 56.59, 87.15 64.69 C84.94 72.79, 80.9 81.16, 75.56 86.71 C70.22 92.26, 62.29 96.3, 55.11 97.99 C47.93 99.67, 39.59 99.17, 32.49 96.82 C25.39 94.48, 17.86 89.83, 12.49 83.92 C7.11 78.01, 2.02 69.57, 0.22 61.37 C-1.58 53.17, -0.76 42.89, 1.7 34.74 C4.15 26.59, 8.8 18.17, 14.95 12.46 C21.11 6.76, 34.45 2.32, 38.61 0.51 C42.78 -1.3, 39.98 0.62, 39.94 1.61 M53.11 0.45 C60.21 1.09, 69.06 6.23, 74.56 11.62 C80.06 17.02, 83.87 24.99, 86.13 32.81 C88.39 40.63, 89.08 50.17, 88.1 58.53 C87.13 66.89, 84.85 76.77, 80.29 82.99 C75.74 89.21, 68.2 93.22, 60.76 95.86 C53.32 98.5, 43.04 100.05, 35.65 98.84 C28.27 97.62, 22.08 94.09, 16.43 88.57 C10.79 83.06, 4.23 73.82, 1.77 65.73 C-0.69 57.64, 0.12 48.21, 1.67 40.03 C3.23 31.84, 6.46 22.77, 11.1 16.63 C15.75 10.49, 22.34 5.62, 29.52 3.19 C36.7 0.77, 50.25 2.32, 54.17 2.09 C58.09 1.86, 53.12 0.98, 53.04 1.81" stroke="#000000" stroke-width="1" fill="none"></path></g><g stroke-linecap="round" transform="translate(41.26984126984087 1395.5295815295813) rotate(0 21.66666666666663 22.5)"><path d="M13.08 2.69 C17.02 0.44, 23.25 0.32, 27.72 1.31 C32.19 2.3, 37.38 4.75, 39.92 8.64 C42.46 12.54, 43.4 19.73, 42.97 24.7 C42.55 29.67, 40.41 35.07, 37.37 38.46 C34.33 41.85, 29.37 44.66, 24.74 45.05 C20.11 45.44, 13.47 43.53, 9.58 40.78 C5.7 38.03, 2.57 33.18, 1.44 28.54 C0.3 23.9, 0.82 17.52, 2.78 12.93 C4.75 8.34, 11.16 2.76, 13.21 1 C15.26 -0.76, 14.87 1.72, 15.1 2.37 M32.27 2.47 C36.49 4.36, 39.1 10.16, 40.71 14.24 C42.32 18.33, 42.94 22.64, 41.94 26.99 C40.94 31.34, 38.2 37.58, 34.71 40.35 C31.21 43.11, 25.61 43.98, 20.97 43.57 C16.32 43.16, 10.43 41.16, 6.84 37.89 C3.26 34.63, -0.05 28.95, -0.56 23.97 C-1.07 18.99, 1.12 11.96, 3.78 8.02 C6.44 4.08, 11.01 1.4, 15.4 0.35 C19.78 -0.7, 27.66 1.53, 30.07 1.71 C32.48 1.89, 29.93 0.91, 29.85 1.41" stroke="none" stroke-width="0" fill="#000000"></path><path d="M20.13 0.33 C24.32 -0.47, 30.26 0.87, 34.1 3.65 C37.94 6.42, 42.1 12.19, 43.15 16.97 C44.2 21.75, 42.73 28.11, 40.41 32.33 C38.08 36.55, 33.32 40.48, 29.22 42.3 C25.12 44.13, 20.02 44.72, 15.81 43.29 C11.59 41.87, 6.45 37.59, 3.93 33.76 C1.41 29.93, 0.17 25.01, 0.7 20.31 C1.23 15.61, 3.4 8.8, 7.1 5.56 C10.8 2.32, 19.9 1.58, 22.91 0.87 C25.92 0.17, 25.02 1.1, 25.18 1.32 M11.12 1.66 C14.86 -0.18, 20.87 0.29, 25.81 1.77 C30.76 3.25, 38.11 6.9, 40.79 10.56 C43.47 14.21, 42.35 19.17, 41.89 23.7 C41.43 28.22, 41.18 34.03, 38.04 37.72 C34.89 41.4, 27.69 45.51, 23.02 45.82 C18.35 46.12, 13.59 42.21, 10.03 39.54 C6.47 36.88, 3.05 34.46, 1.66 29.83 C0.26 25.19, -0.23 16.32, 1.66 11.73 C3.54 7.14, 11.35 3.98, 12.95 2.31 C14.55 0.63, 11.41 1.29, 11.26 1.69" stroke="#000000" stroke-width="1" fill="none"></path></g><g stroke-linecap="round" transform="translate(17.93650793650761 1368.8629148629143) rotate(0 45 50)"><path d="M56.78 0.94 C63.54 2.41, 70.55 8.94, 75.72 14.85 C80.9 20.76, 85.77 28.52, 87.81 36.38 C89.86 44.23, 89.97 53.73, 87.99 61.98 C86.02 70.22, 81.28 79.7, 75.97 85.83 C70.66 91.96, 63.35 96.58, 56.13 98.76 C48.91 100.93, 39.67 101.06, 32.65 98.87 C25.63 96.67, 19.24 91.62, 14 85.59 C8.76 79.57, 3.14 70.9, 1.19 62.73 C-0.75 54.57, 0.25 44.48, 2.3 36.6 C4.35 28.73, 8.38 21.45, 13.51 15.49 C18.64 9.54, 25.38 3.11, 33.07 0.86 C40.77 -1.38, 54.8 1.34, 59.67 2.03 C64.55 2.72, 62.68 3.95, 62.35 5 M65.71 6.87 C72.01 10.09, 78.5 15.92, 82.7 22.96 C86.89 30, 90.82 40.5, 90.9 49.1 C90.97 57.69, 86.63 67.34, 83.15 74.52 C79.67 81.71, 76.38 87.87, 70.02 92.21 C63.65 96.55, 52.66 100.49, 44.96 100.58 C37.27 100.68, 30.35 97.03, 23.83 92.78 C17.31 88.53, 9.73 81.97, 5.84 75.08 C1.95 68.19, 0.81 59.77, 0.52 51.42 C0.23 43.07, 0.58 32.16, 4.1 24.99 C7.62 17.81, 14.83 12.42, 21.65 8.36 C28.47 4.3, 37.36 0.87, 45 0.63 C52.65 0.39, 63.88 6.04, 67.54 6.92 C71.2 7.8, 67.61 5.18, 66.96 5.91" stroke="#000000" stroke-width="1" fill="none"></path></g><g stroke-linecap="round" transform="translate(907.2222222222222 2128.8629148629143) rotate(0 21.66666666666663 22.5)"><path d="M32.14 3.13 C36.23 5.09, 39.56 9.42, 41.3 13.58 C43.04 17.74, 43.79 23.48, 42.59 28.06 C41.4 32.65, 37.99 38.27, 34.12 41.11 C30.24 43.95, 24.17 45.62, 19.31 45.13 C14.46 44.63, 8.2 41.72, 5 38.16 C1.8 34.6, 0.16 28.71, 0.12 23.76 C0.09 18.82, 1.99 12.47, 4.8 8.5 C7.6 4.53, 12.29 0.78, 16.97 -0.06 C21.66 -0.91, 29.98 2.77, 32.89 3.41 C35.8 4.04, 34.54 3.56, 34.45 3.75 M25.8 0.21 C30.24 0.73, 33.73 4.01, 36.73 7.57 C39.73 11.12, 43.35 16.84, 43.8 21.53 C44.24 26.22, 42.19 32.06, 39.41 35.73 C36.63 39.4, 31.99 42.63, 27.14 43.54 C22.29 44.46, 14.36 43.55, 10.3 41.21 C6.24 38.88, 4.42 33.69, 2.78 29.53 C1.14 25.36, -0.85 20.41, 0.44 16.24 C1.72 12.06, 6.23 6.96, 10.51 4.46 C14.79 1.96, 23.58 1.65, 26.11 1.22 C28.65 0.8, 25.97 1.9, 25.74 1.89" stroke="none" stroke-width="0" fill="#000000"></path><path d="M18.77 -0.12 C23.05 -0.79, 29.27 0.89, 33.12 3.49 C36.96 6.08, 40.51 10.69, 41.85 15.43 C43.2 20.17, 43.09 27.42, 41.19 31.94 C39.3 36.46, 34.69 40.44, 30.48 42.55 C26.26 44.65, 20.27 45.57, 15.88 44.58 C11.49 43.59, 6.91 40.39, 4.12 36.62 C1.33 32.84, -1.07 26.75, -0.85 21.92 C-0.63 17.09, 1.82 11.21, 5.43 7.64 C9.05 4.07, 17.77 1.75, 20.82 0.49 C23.87 -0.77, 23.72 -0.13, 23.73 0.09 M16.78 -0.45 C21.34 -1.63, 28.39 -0.49, 32.77 2.15 C37.15 4.78, 41.76 10.49, 43.06 15.37 C44.36 20.25, 42.33 26.75, 40.57 31.43 C38.81 36.11, 36.28 41.07, 32.5 43.45 C28.72 45.84, 22.45 46.95, 17.87 45.76 C13.29 44.56, 7.84 40.06, 5.02 36.28 C2.2 32.5, 1.1 27.88, 0.96 23.08 C0.83 18.28, 1.49 11.02, 4.22 7.47 C6.95 3.92, 15.19 3.08, 17.33 1.78 C19.48 0.48, 16.68 -0.68, 17.11 -0.31" stroke="#000000" stroke-width="1" fill="none"></path></g><g stroke-linecap="round" transform="translate(883.8888888888889 2102.1962481962473) rotate(0 45 50)"><path d="M41.31 -0.45 C48.47 -1.79, 57.46 0.64, 64.14 4.29 C70.81 7.94, 77.01 14.6, 81.35 21.46 C85.7 28.31, 89.55 37.15, 90.23 45.41 C90.91 53.66, 88.71 63.35, 85.44 70.98 C82.18 78.61, 76.67 86.53, 70.65 91.19 C64.62 95.85, 56.63 98.41, 49.27 98.96 C41.9 99.51, 33.23 98.02, 26.45 94.5 C19.67 90.98, 12.88 84.52, 8.57 77.85 C4.26 71.18, 1.37 62.79, 0.61 54.49 C-0.14 46.18, 0.93 35.7, 4.01 28.02 C7.09 20.34, 12.46 13.09, 19.11 8.41 C25.77 3.73, 39.25 1.23, 43.94 -0.06 C48.64 -1.36, 47.12 -0.1, 47.29 0.63 M59.93 2.69 C67.08 4.73, 74.77 10.63, 79.81 16.81 C84.85 22.99, 88.92 31.5, 90.17 39.78 C91.42 48.05, 89.69 58.73, 87.31 66.47 C84.94 74.2, 81.48 80.91, 75.92 86.18 C70.36 91.45, 61.18 96.39, 53.94 98.09 C46.71 99.8, 39.77 98.63, 32.53 96.42 C25.28 94.2, 15.49 90.9, 10.48 84.82 C5.47 78.74, 3.95 68.08, 2.46 59.92 C0.97 51.77, -0.44 43.99, 1.53 35.89 C3.5 27.8, 8.4 16.98, 14.28 11.36 C20.15 5.74, 29.42 3.67, 36.8 2.18 C44.18 0.69, 54.87 2.46, 58.55 2.44 C62.24 2.42, 58.96 1.32, 58.94 2.07" stroke="#000000" stroke-width="1" fill="none"></path></g><g stroke-linecap="round"><g transform="translate(920.5555555555554 1920.5295815295804) rotate(0 0.4545378829305946 92.82718155989892)"><path d="M-0.51 0.64 C-0.41 31.74, 0.33 154.88, 0.59 185.72 M1.42 -0.07 C1.41 30.76, 0.04 153.35, -0.05 183.98" stroke="#000000" stroke-width="1" fill="none"></path></g><g transform="translate(920.5555555555554 1920.5295815295804) rotate(0 0.4545378829305946 92.82718155989892)"><path d="M-9.03 156.69 C-6.08 166.03, -3.12 172.73, -0.75 182.36 M-9.58 155.9 C-8.51 161.77, -6.77 168.51, -0.59 183.15" stroke="#000000" stroke-width="1" fill="none"></path></g><g transform="translate(920.5555555555554 1920.5295815295804) rotate(0 0.4545378829305946 92.82718155989892)"><path d="M11.49 156.85 C8.28 166.05, 5.08 172.7, -0.75 182.36 M10.94 156.06 C7.68 161.94, 5.09 168.64, -0.59 183.15" stroke="#000000" stroke-width="1" fill="none"></path></g></g><g stroke-linecap="round"><g transform="translate(261.73478455581665 1424.4058194791583) rotate(0 -73.15106848609463 -0.22053365244676115)"><path d="M-0.11 0.67 C-24.31 0.94, -122.17 0.61, -146.2 0.74 M-1.62 -0.02 C-25.35 -0.05, -120.07 -1.16, -143.87 -1.22" stroke="#000000" stroke-width="1" fill="none"></path></g><g transform="translate(261.73478455581665 1424.4058194791583) rotate(0 -73.15106848609463 -0.22053365244676115)"><path d="M-114.48 -12.49 C-121.37 -7.11, -126.45 -7.05, -143.63 -0.69 M-115 -11.06 C-121.22 -8.46, -129.31 -5.62, -143.44 -0.64" stroke="#000000" stroke-width="1" fill="none"></path></g><g transform="translate(261.73478455581665 1424.4058194791583) rotate(0 -73.15106848609463 -0.22053365244676115)"><path d="M-114.64 8.03 C-121.34 8.9, -126.39 4.44, -143.63 -0.69 M-115.16 9.46 C-121.37 7.34, -129.42 5.45, -143.44 -0.64" stroke="#000000" stroke-width="1" fill="none"></path></g></g><g stroke-linecap="round"><g transform="translate(245.94204179488202 586.7798755123183) rotate(0 -68.47639092780622 0.4480615222940969)"><path d="M-0.76 -0.92 C-23.78 -0.84, -114.45 -0.13, -137.39 0.22 M1.04 1.22 C-22.14 1.52, -114.6 2.03, -137.99 1.72" stroke="#000000" stroke-width="1" fill="none"></path></g><g transform="translate(245.94204179488202 586.7798755123183) rotate(0 -68.47639092780622 0.4480615222940969)"><path d="M-111.3 -7.38 C-120.03 -5.58, -128.49 -3.28, -139.63 2.45 M-108.8 -9.19 C-116.47 -6.68, -123.03 -3.73, -137.25 0.78" stroke="#000000" stroke-width="1" fill="none"></path></g><g transform="translate(245.94204179488202 586.7798755123183) rotate(0 -68.47639092780622 0.4480615222940969)"><path d="M-111.36 13.14 C-120.01 7.6, -128.46 2.56, -139.63 2.45 M-108.85 11.33 C-116.55 9.13, -123.11 7.37, -137.25 0.78" stroke="#000000" stroke-width="1" fill="none"></path></g></g><g transform="translate(935.3968253968251 356.3629148629141) rotate(0 175.55555555555554 21.944444444444457)"><text x="0" y="30.888888888888886" font-family="Virgil, Segoe UI Emoji" font-size="35.111111111111114px" fill="#000000" text-anchor="start" style="white-space: pre;" direction="ltr">Check with Infinileap</text></g><g stroke-linecap="round"><g transform="translate(762.0634920634914 599.1724386724381) rotate(0 -104.82825516246317 0.25244322944894293)"><path d="M1.02 -0.96 C-34.19 -0.84, -174.75 -0.51, -210.21 -0.24 M0.1 1.15 C-35.29 1.54, -175.2 1.58, -210.68 1.17" stroke="#000000" stroke-width="1" fill="none"></path></g><g transform="translate(762.0634920634914 599.1724386724381) rotate(0 -104.82825516246317 0.25244322944894293)"><path d="M-184.04 -7.45 C-193.99 -5.75, -203.52 -0.2, -210.6 2.33 M-182.11 -8 C-193.76 -5.76, -204.85 -0.54, -211.66 0.88" stroke="#000000" stroke-width="1" fill="none"></path></g><g transform="translate(762.0634920634914 599.1724386724381) rotate(0 -104.82825516246317 0.25244322944894293)"><path d="M-184.13 13.07 C-193.88 6.73, -203.37 4.24, -210.6 2.33 M-182.2 12.52 C-193.82 6.97, -204.87 4.39, -211.66 0.88" stroke="#000000" stroke-width="1" fill="none"></path></g></g><g transform="translate(941.4523809523773 1179.1724386724386) rotate(0 86.77777777777828 19.722222222222285)"><text x="0" y="27.444444444444677" font-family="Virgil, Segoe UI Emoji" font-size="31.555555555555735px" fill="#000000" text-anchor="start" style="white-space: pre;" direction="ltr">Using Jedis</text></g></svg>