<svg version="1.1" xmlns="http://www.w3.org/2000/svg" viewBox="0 0 1144.6890506124682 2022.3990412816684" width="1144.6890506124682" height="2022.3990412816684">
  <!-- svg-source:excalidraw -->
  
  <defs>
    <style>
      @font-face {
        font-family: "Virgil";
        src: url("https://excalidraw.com/Virgil.woff2");
      }
      @font-face {
        font-family: "Cascadia";
        src: url("https://excalidraw.com/Cascadia.woff2");
      }
    </style>
  </defs>
  <rect x="0" y="0" width="1144.6890506124682" height="2022.3990412816684" fill="#ffffff"></rect><g stroke-linecap="round" transform="translate(663.6890506124681 10) rotate(0 156.5 96)"><path d="M1.18 -0.7 C77.71 -2.64, 154.36 -2.29, 313.65 1.12 M-0.18 -0.12 C69.03 0.53, 137.79 1.18, 312.4 0.06 M311.68 1.22 C312.58 43.33, 313.51 86.46, 314.53 192.53 M313.65 0.01 C314.52 69.69, 313.77 140.24, 312.33 191.06 M312.51 191.52 C215.07 189.49, 120.55 189.96, -0.31 192.22 M313.4 191.61 C219.17 191.29, 126.69 191.2, -0.56 192.61 M-1.88 193.1 C-1.07 118.63, 1.17 44.18, -0.65 1.13 M0.02 192.81 C-1.54 121.33, -1.72 50.3, 0.4 -0.77" stroke="#000000" stroke-width="1" fill="none"></path></g><g transform="translate(695.6890506124681 37) rotate(0 121 31)"><text x="0" y="44" font-family="Virgil, Segoe UI Emoji" font-size="49.18918918918921px" fill="#000000" text-anchor="start" style="white-space: pre;" direction="ltr">Client-Put</text></g><g transform="translate(691.6890506124681 115) rotate(0 71.5 25)"><text x="0" y="18" font-family="Virgil, Segoe UI Emoji" font-size="20px" fill="#000000" text-anchor="start" style="white-space: pre;" direction="ltr">given:</text><text x="0" y="43" font-family="Virgil, Segoe UI Emoji" font-size="20px" fill="#000000" text-anchor="start" style="white-space: pre;" direction="ltr">- Java Object</text></g><g stroke-linecap="round"><g transform="translate(819.6890506124681 199) rotate(0 -0.2024422377907058 68.45651598321919)"><path d="M0.08 0.84 C-0.15 23.61, -1.15 112.85, -1.16 135.67 M-1.34 0.24 C-1.24 23.2, 0.84 114.05, 0.94 136.68" stroke="#000000" stroke-width="1" fill="none"></path></g><g transform="translate(819.6890506124681 199) rotate(0 -0.2024422377907058 68.45651598321919)"><path d="M-8.33 106.7 C-8.27 117.48, -1.37 124.71, -0.03 138.43 M-10.73 109.33 C-7.98 114.32, -4.02 122.97, 1.48 136.88" stroke="#000000" stroke-width="1" fill="none"></path></g><g transform="translate(819.6890506124681 199) rotate(0 -0.2024422377907058 68.45651598321919)"><path d="M12.19 106.4 C5.76 117.29, 6.17 124.62, -0.03 138.43 M9.79 109.02 C7.6 114.23, 6.63 122.95, 1.48 136.88" stroke="#000000" stroke-width="1" fill="none"></path></g></g><g transform="translate(841.6890506124681 248) rotate(0 146.5 12.5)"><text x="0" y="18" font-family="Virgil, Segoe UI Emoji" font-size="20px" fill="#000000" text-anchor="start" style="white-space: pre;" direction="ltr">Check if object is serializable</text></g><g stroke-linecap="round" transform="translate(642.6890506124681 342) rotate(0 178 105.40552995391704)"><path d="M176.29 -1.72 C228.25 28.08, 279.66 60.29, 355.74 105.39 M178.32 0.23 C221.79 25.88, 266.71 52.44, 355.26 106.24 M356.16 106.09 C298.43 138.09, 245.34 172.82, 176.81 210.24 M356.28 105.89 C314.64 129.93, 271.45 154.38, 177.44 209.98 M179.51 211.93 C123.1 175.26, 63.59 142.68, -0.79 105.97 M177.33 210.54 C106.07 169.04, 34.46 127.85, 0.43 105.2 M0.77 106.58 C59.26 71.29, 117.77 34.22, 177.5 0.37 M-0.56 105.89 C59.15 72.74, 115.87 37.01, 178.42 -0.54" stroke="#000000" stroke-width="1" fill="none"></path></g><g transform="translate(707.6890506124681 433) rotate(0 110.5 12.5)"><text x="0" y="18" font-family="Virgil, Segoe UI Emoji" font-size="20px" fill="#000000" text-anchor="start" style="white-space: pre;" direction="ltr">Is object serializable?</text></g><g stroke-linecap="round"><g transform="translate(640.6890506124681 446) rotate(0 -66.01829334050416 -0.5232555420612925)"><path d="M-0.91 0.41 C-22.92 0.59, -110.99 0.5, -132.85 0.39 M0.82 -0.43 C-20.74 -0.55, -108.3 -1.76, -130.59 -1.53" stroke="#000000" stroke-width="1" fill="none"></path></g><g transform="translate(640.6890506124681 446) rotate(0 -66.01829334050416 -0.5232555420612925)"><path d="M-101.69 -13.12 C-108.36 -9.72, -115.98 -8.51, -130.19 -0.95 M-102.74 -12.58 C-112.31 -8.72, -122.91 -3.87, -130.46 -2.43" stroke="#000000" stroke-width="1" fill="none"></path></g><g transform="translate(640.6890506124681 446) rotate(0 -66.01829334050416 -0.5232555420612925)"><path d="M-101.75 7.4 C-108.29 6.01, -115.89 2.44, -130.19 -0.95 M-102.81 7.94 C-112.3 4.23, -122.88 1.51, -130.46 -2.43" stroke="#000000" stroke-width="1" fill="none"></path></g></g><g transform="translate(566.6890506124681 407) rotate(0 18.5 18.5)"><text x="0" y="26.000000000000014" font-family="Virgil, Segoe UI Emoji" font-size="29.599999999999998px" fill="#000000" text-anchor="start" style="white-space: pre;" direction="ltr">No</text></g><g stroke-linecap="round" transform="translate(293.6890506124681 380) rotate(0 104.5 66)"><path d="M139.46 3.49 C152.67 5.32, 167.36 11.67, 177.54 17.87 C187.72 24.07, 195.31 32.38, 200.55 40.67 C205.8 48.95, 209.32 58.49, 209.02 67.57 C208.72 76.65, 205.12 87.01, 198.75 95.14 C192.39 103.27, 181.61 110.69, 170.83 116.33 C160.06 121.97, 147.55 126.51, 134.1 129 C120.64 131.49, 104.33 132.5, 90.11 131.29 C75.9 130.07, 61 126.59, 48.81 121.69 C36.62 116.79, 24.81 109.15, 16.97 101.88 C9.13 94.62, 4 86.86, 1.78 78.1 C-0.43 69.34, 0.2 57.97, 3.69 49.32 C7.17 40.68, 13.94 33.27, 22.69 26.22 C31.43 19.18, 43.57 11.32, 56.16 7.06 C68.75 2.81, 82.39 0.6, 98.23 0.68 C114.07 0.77, 141.07 5.7, 151.21 7.58 C161.35 9.46, 159.93 10.94, 159.07 11.97 M130.32 2.5 C143.76 3.8, 160.27 9.68, 171.55 15.46 C182.82 21.24, 191.92 29.41, 197.97 37.19 C204.01 44.98, 207.07 53.37, 207.84 62.18 C208.61 70.98, 207.61 81.4, 202.59 90.02 C197.57 98.65, 187.88 107.49, 177.74 113.92 C167.61 120.35, 154.74 125.8, 141.78 128.61 C128.82 131.42, 114.04 131.6, 100 130.77 C85.95 129.94, 70.26 127.46, 57.52 123.61 C44.79 119.77, 32.78 114.65, 23.59 107.69 C14.4 100.73, 6.22 90.74, 2.38 81.86 C-1.46 72.99, -1.68 63.31, 0.55 54.43 C2.79 45.55, 7.84 35.94, 15.79 28.59 C23.74 21.23, 36.36 15.11, 48.25 10.29 C60.15 5.46, 73.17 1.01, 87.19 -0.38 C101.2 -1.77, 125.19 1.46, 132.35 1.94 C139.51 2.42, 130.72 1.18, 130.14 2.49" stroke="#000000" stroke-width="1" fill="none"></path></g><g transform="translate(335.6890506124681 405) rotate(0 73.5 37.5)"><text x="0" y="18" font-family="Virgil, Segoe UI Emoji" font-size="20px" fill="#000000" text-anchor="start" style="white-space: pre;" direction="ltr">Error:</text><text x="0" y="43" font-family="Virgil, Segoe UI Emoji" font-size="20px" fill="#000000" text-anchor="start" style="white-space: pre;" direction="ltr">"Object is not </text><text x="0" y="68" font-family="Virgil, Segoe UI Emoji" font-size="20px" fill="#000000" text-anchor="start" style="white-space: pre;" direction="ltr">serializable"</text></g><g stroke-linecap="round"><g transform="translate(291.6890506124681 443) rotate(0 -52.08325735419057 0.002655756161402678)"><path d="M-0.06 -0.95 C-17.11 -1.31, -85.82 -1.25, -103.11 -1.04 M-1.55 1.17 C-18.69 1.43, -87.48 0.45, -104.11 -0.05" stroke="#000000" stroke-width="1" fill="none"></path></g><g transform="translate(291.6890506124681 443) rotate(0 -52.08325735419057 0.002655756161402678)"><path d="M-77.29 -9.91 C-83.96 -8.82, -88.28 -6.16, -104.08 1.58 M-75.38 -10.59 C-84.74 -5.72, -93.39 -2.76, -103.73 0.94" stroke="#000000" stroke-width="1" fill="none"></path></g><g transform="translate(291.6890506124681 443) rotate(0 -52.08325735419057 0.002655756161402678)"><path d="M-77.71 10.61 C-84.48 6.92, -88.69 4.8, -104.08 1.58 M-75.79 9.93 C-84.86 8.26, -93.38 4.7, -103.73 0.94" stroke="#000000" stroke-width="1" fill="none"></path></g></g><g stroke-linecap="round" transform="translate(133.68905061246812 425) rotate(0 20 19)"><path d="M13.8 0.93 C17.63 -0.38, 24.88 0.03, 28.89 1.51 C32.89 2.98, 36.08 6.03, 37.85 9.78 C39.62 13.54, 40.64 20.04, 39.51 24.03 C38.39 28.01, 34.47 31.37, 31.12 33.72 C27.78 36.06, 23.49 38.18, 19.42 38.1 C15.36 38.02, 9.83 36.17, 6.74 33.24 C3.65 30.31, 1.31 24.7, 0.89 20.52 C0.48 16.34, 0.96 11.64, 4.24 8.18 C7.52 4.72, 17.01 0.96, 20.58 -0.24 C24.15 -1.43, 25.9 0.8, 25.68 1 M30.22 1.23 C33.93 2.43, 37.71 7.04, 39.19 10.82 C40.66 14.59, 40.26 19.67, 39.07 23.88 C37.89 28.08, 35.64 33.57, 32.05 36.06 C28.46 38.55, 21.79 39.52, 17.51 38.82 C13.23 38.12, 9.33 34.93, 6.36 31.89 C3.39 28.84, -0.1 24.77, -0.29 20.57 C-0.48 16.37, 2.76 10.02, 5.24 6.69 C7.72 3.36, 10.58 1.44, 14.6 0.61 C18.62 -0.22, 26.88 1.41, 29.35 1.7 C31.82 1.99, 29.49 2.27, 29.44 2.35" stroke="none" stroke-width="0" fill="#000"></path><path d="M26.98 1.05 C30.86 2.27, 34.2 6.72, 36.48 10.47 C38.75 14.22, 41.43 19.56, 40.63 23.55 C39.83 27.53, 35.32 31.85, 31.69 34.38 C28.05 36.91, 22.87 38.76, 18.81 38.72 C14.74 38.68, 10.5 36.97, 7.29 34.14 C4.07 31.31, 0.24 25.96, -0.48 21.73 C-1.2 17.49, 0.81 12.21, 2.98 8.72 C5.16 5.23, 8.03 1.92, 12.55 0.78 C17.08 -0.35, 27.03 1.3, 30.13 1.92 C33.24 2.54, 31.39 4.16, 31.2 4.5 M15.06 -0.31 C19.02 -1.22, 24.89 0.45, 28.79 2.3 C32.68 4.16, 36.73 7.04, 38.44 10.83 C40.15 14.62, 40.21 21.05, 39.04 25.05 C37.88 29.06, 35.02 32.49, 31.46 34.86 C27.89 37.23, 22.14 39.52, 17.67 39.28 C13.2 39.04, 7.67 36.75, 4.62 33.43 C1.57 30.12, -0.36 23.7, -0.64 19.4 C-0.92 15.11, 0.12 10.79, 2.94 7.66 C5.76 4.53, 14.26 1.79, 16.28 0.61 C18.3 -0.56, 15.07 0.28, 15.05 0.6" stroke="#000000" stroke-width="1" fill="none"></path></g><g stroke-linecap="round" transform="translate(113.68905061246812 409) rotate(0 37 35)"><path d="M26.22 1.52 C32.69 -0.72, 43.61 -0.18, 50.51 2 C57.41 4.19, 63.69 8.82, 67.62 14.62 C71.56 20.41, 74.46 29.86, 74.11 36.75 C73.75 43.65, 69.85 50.65, 65.48 56 C61.12 61.35, 54.69 66.78, 47.92 68.86 C41.14 70.94, 31.67 70.94, 24.85 68.47 C18.03 66, 11 59.88, 6.99 54.04 C2.98 48.21, 0.52 40.29, 0.78 33.46 C1.04 26.63, 2.61 18.63, 8.55 13.04 C14.48 7.45, 30.45 2, 36.38 -0.07 C42.31 -2.14, 44.02 -0.11, 44.13 0.61 M52.58 2.28 C58.87 4.48, 65.07 10.48, 68.78 16.69 C72.49 22.9, 75.57 32.47, 74.86 39.55 C74.15 46.62, 69.34 54.22, 64.51 59.13 C59.68 64.04, 53 67.59, 45.9 68.99 C38.8 70.39, 28.51 70.4, 21.93 67.53 C15.35 64.66, 10.18 57.74, 6.43 51.78 C2.68 45.81, -1.13 38.45, -0.58 31.74 C-0.04 25.03, 4.65 16.67, 9.69 11.52 C14.73 6.36, 22.48 2.52, 29.66 0.84 C36.84 -0.85, 48.96 1.01, 52.77 1.41 C56.58 1.8, 52.91 2.24, 52.52 3.23" stroke="#000000" stroke-width="1" fill="none"></path></g><g stroke-linecap="round"><g transform="translate(817.6890506124681 549) rotate(0 -0.18992715865368837 67.08896400719885)"><path d="M0.82 0.96 C0.81 23.33, -0.15 111.77, -0.17 133.76 M-0.2 0.42 C-0.39 22.48, -1.29 109.75, -1.2 132.03" stroke="#000000" stroke-width="1" fill="none"></path></g><g transform="translate(817.6890506124681 549) rotate(0 -0.18992715865368837 67.08896400719885)"><path d="M-9.74 103.52 C-7.21 113.19, -5.73 119.87, -0.63 133.77 M-11.07 103.6 C-8.67 110.39, -6.06 115.99, -0.49 131.82" stroke="#000000" stroke-width="1" fill="none"></path></g><g transform="translate(817.6890506124681 549) rotate(0 -0.18992715865368837 67.08896400719885)"><path d="M10.78 103.6 C7.29 113.39, 2.74 120.05, -0.63 133.77 M9.45 103.68 C7.06 110.47, 4.87 116.05, -0.49 131.82" stroke="#000000" stroke-width="1" fill="none"></path></g></g><g transform="translate(832.6890506124681 582) rotate(0 24.5 18.560606060606062)"><text x="0" y="26.121212121212118" font-family="Virgil, Segoe UI Emoji" font-size="29.696969696969695px" fill="#000000" text-anchor="start" style="white-space: pre;" direction="ltr">Yes</text></g><g stroke-linecap="round" transform="translate(694.6890506124681 688) rotate(0 130 82)"><path d="M134.32 0.87 C149.21 -0.12, 166.65 3.39, 180.9 7.19 C195.15 10.99, 208.73 17.05, 219.83 23.67 C230.93 30.29, 240.77 38.04, 247.51 46.91 C254.25 55.79, 259.25 67.02, 260.27 76.91 C261.29 86.81, 258.3 97.01, 253.62 106.29 C248.93 115.58, 241.72 124.72, 232.14 132.62 C222.56 140.53, 209.68 148.5, 196.15 153.73 C182.62 158.95, 166.48 162.7, 150.95 163.98 C135.42 165.26, 118.35 163.79, 102.95 161.41 C87.54 159.03, 71.69 155.11, 58.51 149.7 C45.32 144.29, 32.94 136.7, 23.83 128.95 C14.72 121.2, 7.76 112.54, 3.84 103.2 C-0.08 93.86, -1.58 82.74, 0.31 72.9 C2.2 63.06, 7.69 52.81, 15.17 44.15 C22.65 35.49, 33.4 27.56, 45.21 20.93 C57.02 14.3, 70.27 7.97, 86.03 4.38 C101.78 0.78, 129.89 -0.39, 139.73 -0.67 C149.58 -0.94, 145.18 1.23, 145.09 2.73 M118.48 0.5 C133.21 -1.63, 153.09 1.08, 168.17 3.85 C183.26 6.62, 196.6 11.3, 208.99 17.13 C221.38 22.95, 234.33 30.36, 242.51 38.8 C250.7 47.25, 255.66 57.77, 258.1 67.8 C260.53 77.84, 260.23 89.25, 257.12 99.02 C254.02 108.78, 247.96 118.3, 239.48 126.38 C230.99 134.47, 218.89 141.78, 206.21 147.52 C193.52 153.26, 178.55 158.09, 163.36 160.83 C148.18 163.56, 130.66 165.14, 115.1 163.93 C99.55 162.71, 83.55 158.26, 70.05 153.53 C56.55 148.79, 44.48 142.87, 34.11 135.52 C23.74 128.16, 13.45 118.48, 7.81 109.39 C2.17 100.31, 0.09 90.46, 0.28 81.01 C0.46 71.56, 3.31 61.73, 8.95 52.68 C14.59 43.64, 23.23 34.26, 34.11 26.72 C45 19.18, 59.91 12.1, 74.25 7.46 C88.59 2.82, 112.77 -0.27, 120.15 -1.1 C127.52 -1.94, 118.53 1, 118.48 2.45" stroke="#000000" stroke-width="1" fill="none"></path></g><g transform="translate(746.6890506124681 733) rotate(0 78 37.5)"><text x="78" y="18" font-family="Virgil, Segoe UI Emoji" font-size="20px" fill="#000000" text-anchor="middle" style="white-space: pre;" direction="ltr">Send object to </text><text x="78" y="43" font-family="Virgil, Segoe UI Emoji" font-size="20px" fill="#000000" text-anchor="middle" style="white-space: pre;" direction="ltr">server, using</text><text x="78" y="68" font-family="Virgil, Segoe UI Emoji" font-size="20px" fill="#000000" text-anchor="middle" style="white-space: pre;" direction="ltr">infinileap</text></g><g stroke-linecap="round" transform="translate(663.6890506124681 966) rotate(0 149.5 112.5)"><path d="M149.72 -1.9 C190.68 33.15, 227.56 60.36, 297.2 111.32 M149.56 -0.48 C201.39 39.33, 253.8 79.65, 299.18 112.41 M298.11 113.53 C252.99 148.02, 209.29 182.88, 151.61 223.85 M298.72 112.28 C262.41 141.21, 223.2 168.6, 149.35 225.91 M148.44 224.38 C91.05 182.2, 35.15 138.36, -0.64 112.88 M150.03 224.83 C98.46 186.08, 45.6 146.9, -0.32 113.57 M0.49 112.91 C52.48 72.53, 101.51 34.53, 151.51 1.6 M0.5 112.44 C44.17 79.6, 89.75 45.51, 149.51 0.49" stroke="#000000" stroke-width="1" fill="none"></path></g><g transform="translate(696.6890506124681 1054) rotate(0 118 25)"><text x="118" y="18" font-family="Virgil, Segoe UI Emoji" font-size="20px" fill="#000000" text-anchor="middle" style="white-space: pre;" direction="ltr">Does the server answer</text><text x="118" y="43" font-family="Virgil, Segoe UI Emoji" font-size="20px" fill="#000000" text-anchor="middle" style="white-space: pre;" direction="ltr">before the timeout?</text></g><g stroke-linecap="round"><g transform="translate(814.6890506124681 854) rotate(0 -0.9848425072431723 54.998028564974675)"><path d="M-0.12 -0.26 C-0.2 18.24, -0.21 91.4, -0.34 109.94 M-1.64 -1.45 C-1.92 17.35, -1.99 93.01, -1.47 111.44" stroke="#000000" stroke-width="1" fill="none"></path></g><g transform="translate(814.6890506124681 854) rotate(0 -0.9848425072431723 54.998028564974675)"><path d="M-12.48 82.79 C-9.11 90.56, -4.05 101.52, -3.05 111.2 M-12.28 82.91 C-7.87 92.94, -4.61 101.87, -0.63 112.44" stroke="#000000" stroke-width="1" fill="none"></path></g><g transform="translate(814.6890506124681 854) rotate(0 -0.9848425072431723 54.998028564974675)"><path d="M8.04 82.57 C5.02 90.39, 3.69 101.42, -3.05 111.2 M8.24 82.68 C6.14 92.98, 2.88 101.98, -0.63 112.44" stroke="#000000" stroke-width="1" fill="none"></path></g></g><g transform="translate(834.1890506124681 890) rotate(0 88.5 12.5)"><text x="88.5" y="18" font-family="Virgil, Segoe UI Emoji" font-size="20px" fill="#000000" text-anchor="middle" style="white-space: pre;" direction="ltr">Wait for response</text></g><g stroke-linecap="round"><g transform="translate(665.4752313510513 1078) rotate(0 -67.88596952043167 -0.7275607578457084)"><path d="M-0.27 -0.33 C-23.17 -0.28, -113.99 0.13, -137.02 0.29 M1.79 -1.55 C-21.24 -1.88, -114.01 -1.71, -137.56 -1.68" stroke="#000000" stroke-width="1" fill="none"></path></g><g transform="translate(665.4752313510513 1078) rotate(0 -67.88596952043167 -0.7275607578457084)"><path d="M-109.93 -10.69 C-118.27 -9.67, -127.07 -6.1, -139.42 -0.41 M-108.74 -11.73 C-115.95 -8.91, -124.89 -7.43, -138.3 -1.29" stroke="#000000" stroke-width="1" fill="none"></path></g><g transform="translate(665.4752313510513 1078) rotate(0 -67.88596952043167 -0.7275607578457084)"><path d="M-109.91 9.83 C-118.25 4.02, -127.06 0.77, -139.42 -0.41 M-108.71 8.79 C-115.87 6.16, -124.82 2.17, -138.3 -1.29" stroke="#000000" stroke-width="1" fill="none"></path></g></g><g transform="translate(580.1890506124681 1034) rotate(0 19 19)"><text x="19.000000000000007" y="27.000000000000014" font-family="Virgil, Segoe UI Emoji" font-size="30.4px" fill="#000000" text-anchor="middle" style="white-space: pre;" direction="ltr">No</text></g><g stroke-linecap="round" transform="translate(261.1890506124681 1011) rotate(0 128 66)"><path d="M183.81 7.37 C197.96 9.61, 210.64 15.12, 220.93 20.75 C231.21 26.38, 239.61 33.92, 245.52 41.16 C251.43 48.4, 255.94 56.43, 256.38 64.2 C256.81 71.98, 253.49 80.11, 248.11 87.82 C242.74 95.54, 234.44 104.41, 224.13 110.5 C213.81 116.6, 199.75 120.91, 186.22 124.39 C172.7 127.87, 158.21 130.42, 142.98 131.39 C127.75 132.36, 109.99 132.08, 94.84 130.2 C79.68 128.32, 64.59 124.86, 52.06 120.11 C39.53 115.37, 27.77 108.67, 19.67 101.72 C11.57 94.77, 6.55 86.23, 3.46 78.43 C0.37 70.63, -1.43 62.59, 1.14 54.9 C3.71 47.21, 10.9 39.01, 18.87 32.29 C26.84 25.57, 36.94 19.66, 48.95 14.6 C60.96 9.54, 76.1 4.21, 90.95 1.91 C105.79 -0.38, 120.94 -0.35, 138.02 0.84 C155.11 2.02, 182.78 6.82, 193.46 9.02 C204.15 11.22, 203.05 13.11, 202.14 14.05 M140.47 -0.66 C155.38 -1.05, 172.43 2.07, 186.31 6 C200.2 9.93, 213.4 17.07, 223.78 22.91 C234.15 28.75, 243.12 33.96, 248.57 41.02 C254.03 48.09, 256.6 57.26, 256.51 65.28 C256.42 73.29, 253.8 81.73, 248.04 89.11 C242.27 96.5, 232.39 103.44, 221.94 109.59 C211.48 115.73, 198.86 122.44, 185.31 125.99 C171.76 129.54, 156.15 130.29, 140.64 130.87 C125.13 131.46, 107.18 131.54, 92.24 129.51 C77.3 127.47, 63.1 123.63, 50.98 118.67 C38.86 113.71, 27.5 106.49, 19.51 99.77 C11.53 93.04, 6.16 86.15, 3.08 78.32 C0 70.5, -1.47 60.55, 1.03 52.83 C3.52 45.1, 9.84 38.38, 18.05 31.98 C26.26 25.57, 37.59 19.25, 50.28 14.42 C62.97 9.59, 79.36 5.47, 94.18 3.01 C109 0.55, 131.46 -0.26, 139.19 -0.34 C146.91 -0.42, 140.79 1.31, 140.56 2.52" stroke="#000000" stroke-width="1" fill="none"></path></g><g transform="translate(273.6890506124681 1050) rotate(0 117 25)"><text x="117" y="18" font-family="Virgil, Segoe UI Emoji" font-size="20px" fill="#000000" text-anchor="middle" style="white-space: pre;" direction="ltr">Error: "server did not </text><text x="117" y="43" font-family="Virgil, Segoe UI Emoji" font-size="20px" fill="#000000" text-anchor="middle" style="white-space: pre;" direction="ltr">respond before timeout"</text></g><g stroke-linecap="round" transform="translate(284.6890506124681 694) rotate(0 116.5 91)"><path d="M118.46 -1.37 C147.39 26.86, 179.26 51.44, 233.17 90.84 M117.51 -0.16 C160.97 33.48, 205.94 67.62, 232.04 91.46 M231.49 93.04 C205.65 111.89, 177.14 132.93, 117.15 180.96 M233.65 92.77 C197.87 118.89, 164.84 145.39, 116.27 181.94 M116.94 183.61 C81.56 156.95, 48.14 130.31, -1.02 92.4 M117.31 182.07 C81.16 155.72, 48.23 128.57, 0.63 92.61 M-0.52 91.57 C29.88 68.35, 64.03 43.36, 117.09 -1.07 M0.1 91.23 C35.79 64.36, 72.44 36.22, 116.66 0.67" stroke="#000000" stroke-width="1" fill="none"></path></g><g transform="translate(344.6890506124681 762) rotate(0 57 25)"><text x="57" y="18" font-family="Virgil, Segoe UI Emoji" font-size="20px" fill="#000000" text-anchor="middle" style="white-space: pre;" direction="ltr">Should put </text><text x="57" y="43" font-family="Virgil, Segoe UI Emoji" font-size="20px" fill="#000000" text-anchor="middle" style="white-space: pre;" direction="ltr">be retried?</text></g><g stroke-linecap="round"><g transform="translate(399.6890506124681 1011) rotate(0 0.9696342933313531 -64.08396827904505)"><path d="M0.73 0.55 C1.17 -20.78, 1.81 -105.55, 2.29 -127.21 M-0.35 -0.2 C-0.06 -21.9, 0.57 -107.33, 1.18 -128.72" stroke="#000000" stroke-width="1" fill="none"></path></g><g transform="translate(399.6890506124681 1011) rotate(0 0.9696342933313531 -64.08396827904505)"><path d="M11.9 -100.86 C10.06 -106.34, 3.82 -113.82, -0.45 -130.03 M11.9 -100.23 C9.01 -107.68, 5.97 -117.6, 0.42 -128.22" stroke="#000000" stroke-width="1" fill="none"></path></g><g transform="translate(399.6890506124681 1011) rotate(0 0.9696342933313531 -64.08396827904505)"><path d="M-8.62 -101.2 C-4.89 -106.71, -5.56 -114.1, -0.45 -130.03 M-8.61 -100.57 C-5.6 -107.85, -2.73 -117.67, 0.42 -128.22" stroke="#000000" stroke-width="1" fill="none"></path></g></g><g stroke-linecap="round"><g transform="translate(516.6890506124681 786) rotate(0 88.60411925071855 0.3903514329157929)"><path d="M0.62 0.25 C29.88 0.04, 146.01 0.17, 175.35 -0.06 M-0.51 -0.66 C29.17 -0.16, 148.26 1.41, 177.72 1.44" stroke="#000000" stroke-width="1" fill="none"></path></g><g transform="translate(516.6890506124681 786) rotate(0 88.60411925071855 0.3903514329157929)"><path d="M149.87 10.38 C157.19 9.59, 163.28 4.78, 177.45 3.17 M150.34 10.73 C159.47 7.69, 167.38 4.43, 178.54 2.21" stroke="#000000" stroke-width="1" fill="none"></path></g><g transform="translate(516.6890506124681 786) rotate(0 88.60411925071855 0.3903514329157929)"><path d="M150.03 -10.14 C157.51 -5.16, 163.55 -4.2, 177.45 3.17 M150.5 -9.79 C159.44 -6.03, 167.3 -2.5, 178.54 2.21" stroke="#000000" stroke-width="1" fill="none"></path></g></g><g transform="translate(568.1890506124681 754) rotate(0 19 14.393939393939377)"><text x="19" y="19.787878787878775" font-family="Virgil, Segoe UI Emoji" font-size="23.030303030303028px" fill="#000000" text-anchor="middle" style="white-space: pre;" direction="ltr">Yes</text></g><g stroke-linecap="round"><g transform="translate(287.4802842075562 787) rotate(0 -52.816608529581266 -0.15460959375832317)"><path d="M-0.21 0.24 C-17.75 0.15, -86.99 -0.74, -104.62 -0.73 M-1.78 -0.68 C-19.51 -0.62, -88.43 0.02, -105.42 0.42" stroke="#000000" stroke-width="1" fill="none"></path></g><g transform="translate(287.4802842075562 787) rotate(0 -52.816608529581266 -0.15460959375832317)"><path d="M-77 -9.8 C-88.52 -8.41, -96.75 -1.29, -105.68 -0.48 M-76.52 -9.9 C-84.37 -7.69, -92.39 -5.72, -106.15 0.84" stroke="#000000" stroke-width="1" fill="none"></path></g><g transform="translate(287.4802842075562 787) rotate(0 -52.816608529581266 -0.15460959375832317)"><path d="M-76.69 10.72 C-88.29 4.86, -96.63 4.74, -105.68 -0.48 M-76.2 10.62 C-84.03 7.45, -92.13 4.04, -106.15 0.84" stroke="#000000" stroke-width="1" fill="none"></path></g></g><g transform="translate(231.18905061246812 753) rotate(0 16.5 16.5)"><text x="16.5" y="23" font-family="Virgil, Segoe UI Emoji" font-size="26.4px" fill="#000000" text-anchor="middle" style="white-space: pre;" direction="ltr">No</text></g><g stroke-linecap="round" transform="translate(122.57793950135692 767) rotate(0 20 19)"><path d="M11.65 2.47 C15.05 0.27, 19.34 -1.29, 23.49 -0.48 C27.63 0.33, 33.62 4.01, 36.54 7.32 C39.45 10.63, 41.3 15.14, 40.97 19.39 C40.64 23.64, 37.51 29.58, 34.57 32.82 C31.63 36.06, 27.59 38.61, 23.34 38.83 C19.09 39.05, 12.9 36.61, 9.08 34.16 C5.27 31.71, 1.84 28.02, 0.44 24.14 C-0.96 20.25, -1.35 14.51, 0.7 10.86 C2.75 7.2, 10.62 3.81, 12.72 2.22 C14.83 0.63, 13.31 1.07, 13.33 1.34 M12.32 1.07 C15.68 -0.71, 20.69 -0.75, 24.7 0.42 C28.7 1.6, 33.62 4.77, 36.36 8.13 C39.09 11.49, 41.3 16.36, 41.11 20.58 C40.93 24.8, 38.35 30.55, 35.24 33.48 C32.14 36.41, 26.77 38.02, 22.49 38.16 C18.21 38.3, 13.05 36.54, 9.56 34.29 C6.08 32.05, 2.86 28.28, 1.58 24.69 C0.3 21.1, 0.25 16.41, 1.88 12.76 C3.52 9.1, 9.69 4.4, 11.39 2.74 C13.08 1.08, 11.77 2.67, 12.06 2.79" stroke="none" stroke-width="0" fill="#000"></path><path d="M27.9 1.19 C31.71 2.41, 36.33 6.15, 38.23 9.87 C40.13 13.59, 40.36 19.43, 39.29 23.53 C38.23 27.62, 35.23 32.02, 31.82 34.42 C28.42 36.82, 23.18 38.2, 18.85 37.92 C14.51 37.64, 8.87 35.31, 5.8 32.75 C2.73 30.19, 0.78 26.56, 0.43 22.56 C0.08 18.56, 1.58 12.4, 3.7 8.74 C5.81 5.08, 9 1.9, 13.11 0.61 C17.22 -0.69, 25.53 0.53, 28.37 0.98 C31.21 1.42, 30.35 2.85, 30.16 3.28 M22.55 -0.38 C26.31 -0.1, 29.58 3.97, 32.56 6.65 C35.54 9.32, 39.98 11.71, 40.41 15.68 C40.84 19.66, 37.84 26.76, 35.15 30.48 C32.47 34.19, 27.95 36.78, 24.31 37.96 C20.67 39.14, 16.9 39.57, 13.31 37.59 C9.71 35.6, 4.7 29.87, 2.74 26.07 C0.78 22.27, 0.42 18.33, 1.55 14.78 C2.68 11.24, 6.25 7.48, 9.53 4.8 C12.8 2.12, 19.34 -0.56, 21.21 -1.31 C23.07 -2.06, 20.79 -0.28, 20.7 0.29" stroke="#000000" stroke-width="1" fill="none"></path></g><g stroke-linecap="round" transform="translate(102.57793950135692 751) rotate(0 37 35)"><path d="M52.54 3.89 C58.97 6.12, 65.56 12.02, 69.19 17.86 C72.81 23.7, 75.06 32.12, 74.27 38.9 C73.47 45.67, 69.48 53.56, 64.42 58.51 C59.35 63.46, 51.14 67.18, 43.89 68.58 C36.63 69.98, 27.3 69.59, 20.9 66.92 C14.51 64.24, 8.99 58.69, 5.53 52.52 C2.06 46.35, -0.58 36.89, 0.12 29.9 C0.81 22.92, 4.87 15.45, 9.7 10.62 C14.53 5.79, 21.11 1.87, 29.09 0.93 C37.07 0, 52.32 3.6, 57.59 5 C62.87 6.39, 61.07 8.7, 60.73 9.28 M51.49 2.82 C57.94 4.71, 62.74 9.04, 66.62 14.51 C70.5 19.98, 74.78 28.31, 74.76 35.64 C74.73 42.97, 70.94 52.84, 66.46 58.49 C61.98 64.14, 55.19 67.85, 47.87 69.54 C40.56 71.23, 29.49 71, 22.58 68.63 C15.67 66.26, 9.98 61.28, 6.43 55.33 C2.88 49.39, 1.18 40.14, 1.25 32.96 C1.33 25.79, 2.53 17.68, 6.86 12.29 C11.19 6.89, 19.99 2.4, 27.24 0.62 C34.48 -1.17, 46.73 1.41, 50.33 1.57 C53.94 1.72, 49.18 0.79, 48.86 1.53" stroke="#000000" stroke-width="1" fill="none"></path></g><g transform="translate(823.1890506124681 1223) rotate(0 23.100000000000023 17.5)"><text x="23.1" y="25.000000000000007" font-family="Virgil, Segoe UI Emoji" font-size="28.000000000000004px" fill="#000000" text-anchor="middle" style="white-space: pre;" direction="ltr">Yes</text></g><g stroke-linecap="round" transform="translate(652.6890506124681 1308) rotate(0 164.5 95)"><path d="M240.55 9.6 C256.89 12.92, 271.09 22.77, 283.16 30.21 C295.23 37.65, 305.44 45.11, 312.98 54.26 C320.51 63.4, 326.42 74.64, 328.37 85.08 C330.32 95.52, 328.88 106.93, 324.65 116.87 C320.42 126.82, 312.4 136.26, 302.98 144.76 C293.56 153.26, 281.8 161.43, 268.14 167.87 C254.48 174.31, 237.72 179.77, 221.05 183.4 C204.38 187.02, 186.04 189.22, 168.12 189.61 C150.2 190.01, 130.49 188.89, 113.52 185.75 C96.55 182.61, 80.45 176.88, 66.28 170.77 C52.11 164.66, 38.46 157.37, 28.49 149.08 C18.52 140.78, 11.03 131.14, 6.48 121.02 C1.93 110.9, 0.33 98.76, 1.19 88.38 C2.06 77.99, 4.91 67.99, 11.67 58.72 C18.44 49.46, 29.71 40.44, 41.8 32.79 C53.88 25.15, 68.93 17.96, 84.19 12.84 C99.46 7.71, 116.07 4.01, 133.37 2.03 C150.67 0.06, 169.13 -0.89, 187.98 0.97 C206.83 2.84, 235.89 10.52, 246.47 13.22 C257.04 15.91, 252.9 15.97, 251.41 17.14 M211.97 5.03 C228.94 6.41, 247.65 11.01, 262.39 17.15 C277.14 23.29, 290.41 33.13, 300.44 41.87 C310.46 50.62, 317.7 60.1, 322.55 69.64 C327.41 79.17, 330.65 89.09, 329.55 99.09 C328.46 109.09, 322.94 119.74, 315.96 129.62 C308.98 139.5, 299.01 150.67, 287.66 158.37 C276.31 166.07, 263.08 171.09, 247.85 175.81 C232.62 180.53, 213.95 184.24, 196.28 186.67 C178.61 189.11, 159.62 191.36, 141.83 190.4 C124.04 189.44, 105.34 185.51, 89.52 180.91 C73.71 176.31, 59 170.3, 46.95 162.81 C34.9 155.32, 25.13 145.53, 17.24 135.96 C9.35 126.39, 1.89 115.6, -0.38 105.4 C-2.65 95.2, -0.27 84.48, 3.63 74.74 C7.54 65.01, 13.75 55.98, 23.06 47 C32.36 38.02, 45.72 27.61, 59.48 20.87 C73.25 14.13, 88.82 9.84, 105.65 6.57 C122.47 3.3, 142.63 1.51, 160.44 1.24 C178.24 0.97, 203.89 4.3, 212.49 4.93 C221.08 5.57, 212.88 3.5, 212.01 5.02" stroke="#000000" stroke-width="1" fill="none"></path></g><g transform="translate(682.1890506124681 1343) rotate(0 133.9849999999999 63.5)"><text x="133.98499999999993" y="22.749999999999993" font-family="Virgil, Segoe UI Emoji" font-size="25.39999999999998px" fill="#000000" text-anchor="middle" style="white-space: pre;" direction="ltr">Extract the server</text><text x="133.98499999999993" y="54.499999999999986" font-family="Virgil, Segoe UI Emoji" font-size="25.39999999999998px" fill="#000000" text-anchor="middle" style="white-space: pre;" direction="ltr"> information and the </text><text x="133.98499999999993" y="86.24999999999997" font-family="Virgil, Segoe UI Emoji" font-size="25.39999999999998px" fill="#000000" text-anchor="middle" style="white-space: pre;" direction="ltr">object id and save </text><text x="133.98499999999993" y="117.99999999999997" font-family="Virgil, Segoe UI Emoji" font-size="25.39999999999998px" fill="#000000" text-anchor="middle" style="white-space: pre;" direction="ltr">them in Redis</text></g><g stroke-linecap="round"><g transform="translate(811.6890506124681 1190) rotate(0 -0.9080491287519976 57.002879836699094)"><path d="M-0.11 -0.81 C-0.17 18.02, -0.24 94.39, -0.22 113.19 M-1.63 1.37 C-1.87 20.4, -1.43 96.26, -1.28 114.82" stroke="#000000" stroke-width="1" fill="none"></path></g><g transform="translate(811.6890506124681 1190) rotate(0 -0.9080491287519976 57.002879836699094)"><path d="M-13.08 86.33 C-8.14 95.45, -6.97 103.07, -1.43 114.23 M-10.98 87.3 C-9.26 95.97, -4.66 105.35, -0.78 113.91" stroke="#000000" stroke-width="1" fill="none"></path></g><g transform="translate(811.6890506124681 1190) rotate(0 -0.9080491287519976 57.002879836699094)"><path d="M7.44 86.2 C6.04 95.34, 0.88 103, -1.43 114.23 M9.55 87.17 C4.74 95.71, 2.82 105.14, -0.78 113.91" stroke="#000000" stroke-width="1" fill="none"></path></g></g><g stroke-linecap="round" transform="translate(663.6890506124681 1597) rotate(0 146.5 107.5)"><path d="M147.81 1.23 C188.57 32.37, 228.27 64.37, 293.62 108.54 M146.82 -0.94 C194.74 37.01, 244.07 72.31, 293.02 107.19 M292.31 109.41 C262.75 133.59, 231.46 153.44, 145.53 216.22 M293.03 107.34 C256.63 135.08, 220.39 162.02, 147.38 214.11 M145.73 213.2 C106.02 185.83, 67.63 156.81, 1.46 107.84 M147.41 214.94 C101.95 181.51, 56.73 147.29, -0.86 107.28 M-0.99 107.94 C50.67 68.65, 100.92 31.94, 146.84 -0.51 M-0.66 107.9 C36.06 81.83, 70.15 57.09, 146.93 0.13" stroke="#000000" stroke-width="1" fill="none"></path></g><g transform="translate(689.6890506124681 1689) rotate(0 120.63999999999999 15.387755102040842)"><text x="120.63999999999999" y="21.775510204081655" font-family="Virgil, Segoe UI Emoji" font-size="24.620408163265296px" fill="#000000" text-anchor="middle" style="white-space: pre;" direction="ltr">Is Redis reachable?</text></g><g stroke-linecap="round"><g transform="translate(811.8139709470539 1500) rotate(0 0.16974946171046668 46.359647119944384)"><path d="M-0.73 -0.86 C-0.86 14.66, -0.07 76.65, 0.14 92.39 M1.08 1.3 C0.74 17.03, -0.56 78.53, -0.74 93.58" stroke="#000000" stroke-width="1" fill="none"></path></g><g transform="translate(811.8139709470539 1500) rotate(0 0.16974946171046668 46.359647119944384)"><path d="M-11.94 65.44 C-8.16 76.72, -2.44 84.72, 0.22 91.65 M-11.41 66.01 C-8.18 72.55, -5.21 81.09, -0.32 94.45" stroke="#000000" stroke-width="1" fill="none"></path></g><g transform="translate(811.8139709470539 1500) rotate(0 0.16974946171046668 46.359647119944384)"><path d="M8.57 65.8 C4.7 76.81, 2.75 84.68, 0.22 91.65 M9.11 66.36 C6.58 72.98, 3.79 81.42, -0.32 94.45" stroke="#000000" stroke-width="1" fill="none"></path></g></g><g stroke-linecap="round"><g transform="translate(666.7879388334123 1705.192692075319) rotate(0 -69.85367565902408 0.3039484946395987)"><path d="M-0.85 -0.78 C-24.15 -0.95, -117.29 -0.4, -140.61 -0.28 M0.9 1.42 C-21.94 1.38, -115.11 1.15, -138.32 1.12" stroke="#000000" stroke-width="1" fill="none"></path></g><g transform="translate(666.7879388334123 1705.192692075319) rotate(0 -69.85367565902408 0.3039484946395987)"><path d="M-111.41 -10.43 C-116.99 -8.52, -123.11 -3.09, -137.4 2.32 M-110.53 -9.93 C-119.44 -5.47, -126.65 -2.13, -137.58 1.46" stroke="#000000" stroke-width="1" fill="none"></path></g><g transform="translate(666.7879388334123 1705.192692075319) rotate(0 -69.85367565902408 0.3039484946395987)"><path d="M-111.45 10.09 C-117.14 7.28, -123.25 7.99, -137.4 2.32 M-110.57 10.59 C-119.47 8.91, -126.66 6.11, -137.58 1.46" stroke="#000000" stroke-width="1" fill="none"></path></g></g><g transform="translate(587.833333333333 1665.0815809642077) rotate(0 20.277777777777743 20.277777777777715)"><text x="20.27777777777772" y="28.555555555555443" font-family="Virgil, Segoe UI Emoji" font-size="32.44444444444434px" fill="#000000" text-anchor="middle" style="white-space: pre;" direction="ltr">No</text></g><g stroke-linecap="round" transform="translate(213.66666666666652 1635.1926920753187) rotate(0 156.1111111111111 70.55555555555554)"><path d="M230.36 8.36 C246.24 10.95, 260.22 17.3, 271.94 23.34 C283.66 29.38, 294.04 37.23, 300.67 44.61 C307.29 51.99, 311.22 59.47, 311.69 67.62 C312.16 75.77, 309.15 85.58, 303.48 93.52 C297.81 101.46, 288.63 109.06, 277.67 115.27 C266.71 121.48, 252.62 126.83, 237.7 130.8 C222.78 134.77, 205.62 137.35, 188.14 139.08 C170.66 140.81, 150.54 142.33, 132.82 141.16 C115.1 139.98, 97.39 135.98, 81.81 132.05 C66.24 128.12, 51.19 123.58, 39.37 117.56 C27.56 111.54, 17.63 103.45, 10.91 95.92 C4.19 88.39, -0.29 80.25, -0.93 72.37 C-1.57 64.48, 1.38 56.13, 7.07 48.62 C12.76 41.11, 21.93 33.51, 33.22 27.31 C44.51 21.1, 59.48 15.84, 74.79 11.39 C90.1 6.95, 107.59 2.35, 125.08 0.66 C142.58 -1.04, 160.62 -0.47, 179.77 1.22 C198.91 2.91, 228.77 8.5, 239.97 10.79 C251.17 13.07, 248.3 13.84, 246.98 14.91 M128.11 2.06 C144.1 -0.18, 164.65 0.08, 182.18 1.26 C199.71 2.43, 217.54 5.23, 233.3 9.1 C249.06 12.97, 265.08 18.5, 276.76 24.49 C288.44 30.49, 297.55 37.24, 303.38 45.05 C309.21 52.86, 311.68 63.06, 311.76 71.38 C311.83 79.71, 309.84 87.78, 303.85 95 C297.85 102.23, 287.45 108.8, 275.79 114.74 C264.14 120.69, 249.05 126.55, 233.93 130.69 C218.82 134.82, 202.72 137.92, 185.1 139.55 C167.48 141.19, 146.19 142.04, 128.19 140.51 C110.19 138.99, 92.28 134.6, 77.09 130.39 C61.9 126.17, 48.29 120.91, 37.05 115.21 C25.8 109.52, 15.93 103.4, 9.63 96.23 C3.34 89.06, -0.71 80.53, -0.73 72.19 C-0.74 63.85, 3.56 54.08, 9.54 46.18 C15.53 38.28, 23.96 30.84, 35.2 24.79 C46.44 18.74, 61.49 13.88, 76.98 9.89 C92.47 5.9, 119.3 2.02, 128.16 0.87 C137.03 -0.28, 129.64 1.61, 130.19 2.98" stroke="#000000" stroke-width="1" fill="none"></path></g><g transform="translate(237.05555555555537 1677.30380318643) rotate(0 135.5 25)"><text x="0" y="18" font-family="Virgil, Segoe UI Emoji" font-size="20px" fill="#000000" text-anchor="start" style="white-space: pre;" direction="ltr">Error:</text><text x="0" y="43" font-family="Virgil, Segoe UI Emoji" font-size="20px" fill="#000000" text-anchor="start" style="white-space: pre;" direction="ltr">"Redis could not be rached"</text></g><g stroke-linecap="round"><g transform="translate(213.66666666666674 1701.8593587419855) rotate(0 -63.07045901433357 -0.034731313744487124)"><path d="M-0.01 0.41 C-20.86 0.63, -104.42 0.8, -125.31 0.81 M-1.48 -0.42 C-22.45 -0.49, -105.37 -0.68, -126.13 -0.88" stroke="#000000" stroke-width="1" fill="none"></path></g><g transform="translate(213.66666666666674 1701.8593587419855) rotate(0 -63.07045901433357 -0.034731313744487124)"><path d="M-97.2 -10.58 C-104.52 -7.8, -113.04 -4.95, -126.74 0.77 M-97.83 -11.47 C-106.5 -8.52, -113.86 -4.36, -125.29 -0.95" stroke="#000000" stroke-width="1" fill="none"></path></g><g transform="translate(213.66666666666674 1701.8593587419855) rotate(0 -63.07045901433357 -0.034731313744487124)"><path d="M-97.31 9.94 C-104.51 6.95, -113 4.02, -126.74 0.77 M-97.94 9.06 C-106.55 6, -113.88 4.16, -125.29 -0.95" stroke="#000000" stroke-width="1" fill="none"></path></g></g><g stroke-linecap="round" transform="translate(30 1680.6371365197635) rotate(0 20 19)"><path d="M27.5 1.4 C31.32 2.21, 35.37 5.11, 37.35 8.68 C39.32 12.25, 40.1 18.76, 39.32 22.82 C38.54 26.89, 35.71 30.45, 32.64 33.08 C29.58 35.72, 25.3 38.68, 20.92 38.63 C16.54 38.57, 9.9 35.41, 6.38 32.75 C2.86 30.1, 0.3 26.42, -0.21 22.69 C-0.71 18.97, 1 14.04, 3.35 10.41 C5.7 6.78, 9.51 2.26, 13.89 0.93 C18.28 -0.41, 26.87 1.86, 29.68 2.39 C32.48 2.92, 30.85 3.79, 30.75 4.11 M13.11 2.01 C17.34 0.84, 24.65 1.41, 28.85 2.59 C33.05 3.76, 36.56 5.66, 38.31 9.05 C40.06 12.45, 40.53 18.86, 39.36 22.96 C38.18 27.06, 34.6 31.03, 31.24 33.64 C27.88 36.24, 23.32 38.87, 19.2 38.59 C15.08 38.32, 9.91 35.07, 6.51 31.99 C3.11 28.91, -0.78 23.88, -1.22 20.09 C-1.65 16.3, 1.4 12.6, 3.89 9.23 C6.39 5.86, 11.89 0.96, 13.76 -0.12 C15.63 -1.21, 15.13 2.2, 15.11 2.72" stroke="none" stroke-width="0" fill="#000"></path><path d="M16.58 -0.72 C20.61 -1.65, 25.75 -0.44, 29.58 1.95 C33.41 4.35, 38.04 9.53, 39.54 13.65 C41.05 17.77, 40.37 23.07, 38.6 26.67 C36.84 30.27, 32.64 33.32, 28.98 35.24 C25.32 37.16, 20.79 38.75, 16.64 38.18 C12.5 37.6, 7.02 35.13, 4.1 31.79 C1.18 28.46, -1.02 22.4, -0.88 18.17 C-0.75 13.95, 1.73 9.52, 4.91 6.46 C8.1 3.4, 15.79 0.88, 18.24 -0.19 C20.69 -1.27, 19.61 -0.18, 19.61 0.02 M10.33 1.83 C13.51 -0.42, 19.8 -0.99, 23.88 -0.21 C27.97 0.56, 32.24 2.89, 34.83 6.48 C37.43 10.08, 39.39 17.29, 39.45 21.35 C39.52 25.4, 37.99 28.1, 35.23 30.82 C32.47 33.55, 27.45 37.04, 22.9 37.68 C18.36 38.33, 11.43 37.07, 7.97 34.72 C4.52 32.37, 3.13 27.33, 2.18 23.59 C1.23 19.84, 0.91 15.64, 2.28 12.26 C3.65 8.88, 8.87 4.85, 10.4 3.32 C11.94 1.79, 11.49 3.17, 11.49 3.08" stroke="#000000" stroke-width="1" fill="none"></path></g><g stroke-linecap="round" transform="translate(10 1664.6371365197635) rotate(0 37 35)"><path d="M18.47 3.54 C24.21 0.18, 33.7 -0.04, 41.2 0.97 C48.7 1.98, 57.92 5.09, 63.44 9.58 C68.97 14.07, 73.23 21.1, 74.33 27.93 C75.42 34.75, 73.22 44.29, 70.01 50.54 C66.81 56.78, 61.27 62.35, 55.08 65.39 C48.89 68.44, 40.22 69.64, 32.86 68.8 C25.49 67.97, 16.29 64.96, 10.9 60.38 C5.5 55.81, 1.73 48.1, 0.48 41.35 C-0.78 34.6, -0.18 26.31, 3.37 19.88 C6.93 13.45, 18.32 5.82, 21.8 2.78 C25.28 -0.27, 23.8 0.94, 24.26 1.62 M28.39 -0.37 C34.86 -2.19, 43.75 -0.63, 50.73 2.43 C57.7 5.48, 66.58 11.88, 70.23 17.97 C73.88 24.06, 73.6 32.45, 72.64 38.98 C71.68 45.52, 69.11 51.93, 64.46 57.19 C59.8 62.44, 51.92 68.76, 44.72 70.52 C37.51 72.27, 27.72 70.79, 21.23 67.72 C14.75 64.65, 9.1 58.08, 5.8 52.1 C2.51 46.13, 0.75 38.85, 1.46 31.88 C2.17 24.91, 5.61 15.57, 10.05 10.27 C14.5 4.97, 24.85 1.37, 28.13 0.08 C31.41 -1.21, 29.29 1.62, 29.75 2.52" stroke="#000000" stroke-width="1" fill="none"></path></g><g stroke-linecap="round"><g transform="translate(808.111111111111 1810.7482476308746) rotate(0 -0.03718296437529034 63.054613941629555)"><path d="M0.66 0.24 C0.63 21.12, -1.16 104.87, -1.1 125.85 M-0.46 -0.68 C-0.04 20.26, 0.83 105.52, 1.03 126.79" stroke="#000000" stroke-width="1" fill="none"></path></g><g transform="translate(808.111111111111 1810.7482476308746) rotate(0 -0.03718296437529034 63.054613941629555)"><path d="M-9.12 96.87 C-8.94 106.46, -6.18 112.65, -0.96 128.79 M-9.92 98.39 C-6.98 103.9, -5.28 110.66, 1.17 127.36" stroke="#000000" stroke-width="1" fill="none"></path></g><g transform="translate(808.111111111111 1810.7482476308746) rotate(0 -0.03718296437529034 63.054613941629555)"><path d="M11.4 96.66 C7.06 106.41, 5.29 112.65, -0.96 128.79 M10.6 98.18 C9.37 103.84, 6.89 110.65, 1.17 127.36" stroke="#000000" stroke-width="1" fill="none"></path></g></g><g transform="translate(816.9999999999999 1840.6371365197633) rotate(0 21.5 16.287878787878753)"><text x="0" y="22.575757575757528" font-family="Virgil, Segoe UI Emoji" font-size="26.060606060606013px" fill="#000000" text-anchor="start" style="white-space: pre;" direction="ltr">Yes</text></g><g stroke-linecap="round" transform="translate(789.2261904761905 1958.3990412816684) rotate(0 20 19)"><path d="M21.67 0.18 C25.58 0.41, 30.73 3.43, 33.83 6.13 C36.92 8.82, 39.86 12.41, 40.23 16.35 C40.59 20.29, 38.39 26.14, 36.03 29.75 C33.66 33.36, 30.25 36.95, 26.03 38.03 C21.8 39.1, 14.78 38.04, 10.69 36.19 C6.59 34.33, 3.15 30.61, 1.47 26.9 C-0.21 23.18, -0.61 17.92, 0.62 13.92 C1.85 9.92, 4.66 5.07, 8.85 2.89 C13.03 0.72, 22.44 0.98, 25.74 0.85 C29.04 0.73, 28.66 1.84, 28.64 2.15 M30.11 0.78 C33.67 2.17, 36.59 7.37, 38.05 11.43 C39.51 15.48, 39.85 21.3, 38.87 25.11 C37.89 28.91, 35.65 32.21, 32.19 34.24 C28.74 36.27, 22.56 37.46, 18.13 37.27 C13.7 37.09, 8.63 35.75, 5.62 33.12 C2.61 30.49, 0.22 25.54, 0.07 21.51 C-0.07 17.47, 2.08 12.55, 4.78 8.89 C7.48 5.22, 12.19 0.52, 16.27 -0.49 C20.35 -1.5, 27.12 2.49, 29.27 2.84 C31.41 3.2, 29.53 1.27, 29.11 1.63" stroke="none" stroke-width="0" fill="#000"></path><path d="M15.45 -0.31 C19.32 -1.34, 25.74 0.05, 29.43 2.08 C33.13 4.11, 36.08 8, 37.62 11.86 C39.16 15.73, 39.83 21.25, 38.68 25.27 C37.53 29.3, 34.13 33.92, 30.73 36.01 C27.33 38.11, 22.37 38.59, 18.27 37.83 C14.17 37.08, 9.29 34.61, 6.12 31.49 C2.96 28.37, -0.36 23.09, -0.7 19.1 C-1.03 15.1, 1.08 10.84, 4.13 7.52 C7.18 4.21, 15.06 0.49, 17.59 -0.79 C20.13 -2.07, 19.3 -0.75, 19.34 -0.16 M17.98 0.21 C22.08 0.04, 27.42 2.58, 31.03 4.91 C34.64 7.25, 38.41 10.24, 39.65 14.22 C40.89 18.2, 40.33 25.26, 38.48 28.79 C36.63 32.33, 32.47 33.89, 28.55 35.44 C24.64 36.99, 19.03 39.09, 15 38.09 C10.96 37.09, 6.9 33.1, 4.35 29.44 C1.8 25.78, -0.72 20.24, -0.31 16.13 C0.1 12.02, 3.47 7.41, 6.8 4.77 C10.13 2.13, 17.4 1.17, 19.66 0.28 C21.92 -0.61, 20.5 -0.83, 20.37 -0.55" stroke="#000000" stroke-width="1" fill="none"></path></g><g stroke-linecap="round" transform="translate(769.2261904761905 1942.3990412816684) rotate(0 37 35)"><path d="M46.2 1.5 C53 2.69, 61.29 7.14, 65.94 12.41 C70.59 17.69, 73.71 26.15, 74.11 33.14 C74.52 40.13, 72.26 48.42, 68.39 54.35 C64.51 60.27, 57.78 66.14, 50.89 68.67 C44 71.21, 34.24 71.68, 27.04 69.57 C19.83 67.46, 12.27 61.54, 7.64 56.02 C3.02 50.5, -0.49 43.16, -0.71 36.47 C-0.94 29.77, 2.29 21.53, 6.26 15.85 C10.24 10.18, 15.97 4.66, 23.15 2.42 C30.32 0.17, 44.33 2.12, 49.31 2.37 C54.3 2.61, 53.36 3.39, 53.07 3.87 M22.79 3.16 C28.71 0.41, 36.74 -0.02, 43.83 1.54 C50.93 3.1, 60.56 7.38, 65.36 12.52 C70.16 17.66, 71.84 25.51, 72.63 32.37 C73.42 39.24, 73.46 48.03, 70.09 53.71 C66.73 59.39, 59.28 63.81, 52.45 66.44 C45.62 69.07, 36.28 70.74, 29.11 69.48 C21.94 68.23, 14.19 63.84, 9.42 58.9 C4.64 53.96, 1.39 46.82, 0.48 39.86 C-0.43 32.89, 0.4 23.14, 3.97 17.11 C7.54 11.09, 18.8 5.91, 21.91 3.72 C25.02 1.52, 22.19 3.61, 22.62 3.95" stroke="#000000" stroke-width="1" fill="none"></path></g></svg>